<?xml version="1.0" standalone="no"?>
<!DOCTYPE svg PUBLIC "-//W3C//DTD SVG 1.1//EN" "http://www.w3.org/Graphics/SVG/1.1/DTD/svg11.dtd" >
<svg xmlns="http://www.w3.org/2000/svg">
<metadata>
<json>
<![CDATA[
{
	"fontFamily": "nbtico",
	"description": "Font generated by IcoMoon.",
	"majorVersion": 1,
	"minorVersion": 0,
	"version": "Version 1.0",
	"fontId": "nbtico",
	"psName": "nbtico",
	"subFamily": "Regular",
	"fullName": "nbtico"
}
]]>
</json>
</metadata>
<defs>
<font id="nbtico" horiz-adv-x="1024">
<font-face units-per-em="1024" ascent="870.850439882698" descent="-153.14956011730206" />
<missing-glyph horiz-adv-x="1024" />
<glyph unicode="&#x20;" horiz-adv-x="0" d="" />
<glyph unicode="&#xe900;" glyph-name="multiple-users-silhouette" data-tags="multiple-users-silhouette" d="M620.966 575.665c47.577-29.831 80.943-80.311 87.017-138.91 19.404-9.067 40.94-14.281 63.772-14.281 83.355 0 150.917 67.562 150.917 150.904 0 83.355-67.562 150.917-150.917 150.917-82.56-0.026-149.53-66.381-150.789-148.632zM522.097 266.666c83.355 0 150.917 67.574 150.917 150.917s-67.574 150.904-150.917 150.904c-83.342 0-150.942-67.574-150.942-150.917s67.6-150.904 150.942-150.904zM586.113 256.379h-128.060c-106.549 0-193.231-86.695-193.231-193.244v-156.606l0.396-2.451 10.789-3.376c101.681-31.771 190.020-42.364 262.731-42.364 142.018 0 224.333 40.49 229.406 43.072l10.082 5.098h1.078v156.632c0.038 106.549-86.643 193.244-193.192 193.244zM835.797 412.175h-127.071c-1.372-50.842-23.076-96.621-57.403-129.548 94.707-28.161 164.004-115.987 164.004-219.724v-48.259c125.464 4.595 197.764 40.156 202.528 42.545l10.082 5.111h1.078v156.658c0 106.537-86.682 193.218-193.218 193.218zM257.286 422.449c29.524 0 56.992 8.615 80.26 23.297 7.396 48.247 33.258 90.406 70.205 119.12 0.153 2.826 0.422 5.622 0.422 8.474 0 83.355-67.574 150.917-150.891 150.917-83.368 0-150.917-67.562-150.917-150.917 0-83.317 67.549-150.891 150.917-150.891zM392.818 282.627c-34.158 32.76-55.783 78.295-57.365 128.829-4.715 0.345-9.374 0.721-14.178 0.721h-128.047c-106.549 0-193.231-86.682-193.231-193.218v-156.632l0.396-2.412 10.789-3.401c81.572-25.466 154.371-37.201 217.605-40.902v47.296c0.026 103.736 69.295 191.535 164.029 219.724z" />
<glyph unicode="&#xe901;" glyph-name="books-stack" data-tags="books-stack" d="M0-32.359c0-64.576 52.532-117.106 117.106-117.106h846.852v52.048h-54.225v130.122h54.225v22.771h65.056v52.048h-39.036v130.113h39.036v52.047h-42.288v44.477l-64.26 120.359h67.513v69.986l-169.828 207.58h-599.167l-154.516-243.468c-26.427-21.501-43.698-53.876-43.698-90.516 0-64.173 51.922-116.345 115.96-116.983-43.089-17.308-73.675-59.341-73.675-108.546 0-35.729 16.422-67.365 41.732-88.862-59.685-5.317-106.791-55.026-106.791-116.067zM74.819 398.098c0 24.27 13.497 45.23 33.243 56.413h775.646v-121.475h-743.83c-35.872 0.003-65.061 29.196-65.061 65.061zM182.169 237.629h755.762v-130.112h-755.762c-35.872 0-65.061 29.173-65.061 65.051 0.001 35.887 29.189 65.058 65.061 65.058zM117.108 32.701h740.582v-130.121h-740.583c-35.869 0-65.057 29.173-65.057 65.060s29.189 65.058 65.058 65.058z" />
<glyph unicode="&#xe902;" glyph-name="books-stack2" data-tags="books-stack" d="M1029.015-32.359c0-64.576-52.532-117.106-117.106-117.106h-846.852v52.048h54.225v130.122h-54.225v22.771h-65.056v52.048h39.036v130.113h-39.036v52.047h42.288v44.477l64.26 120.359h-67.513v69.986l169.828 207.58h599.167l154.516-243.468c26.427-21.501 43.698-53.876 43.698-90.516 0-64.173-51.922-116.345-115.96-116.983 43.089-17.308 73.675-59.341 73.675-108.546 0-35.729-16.422-67.365-41.732-88.862 59.685-5.317 106.791-55.026 106.791-116.067zM954.196 398.098c0 24.27-13.497 45.23-33.243 56.413h-775.646v-121.475h743.83c35.872 0.003 65.061 29.196 65.061 65.061zM846.846 237.629h-755.762v-130.112h755.762c35.872 0 65.061 29.173 65.061 65.051-0.001 35.887-29.189 65.058-65.061 65.058zM911.907 32.701h-740.582v-130.121h740.583c35.869 0 65.057 29.173 65.057 65.060s-29.189 65.058-65.058 65.058z" />
<glyph unicode="&#xe903;" glyph-name="college-studying" data-tags="college-studying" d="M870.278-89.162c0-13.552-10.987-24.544-24.544-24.544h-716.263c-46.239 0-83.856 37.622-83.856 83.856v92.059c0 46.234 37.617 83.856 83.856 83.856h716.263c13.557 0 24.544-10.992 24.544-24.544s-10.987-24.544-24.544-24.544h-14.868v-161.593h14.868c13.557 0 24.544-10.992 24.544-24.544zM975.399 202.427c0-13.552-10.987-24.544-24.544-24.544h-614.874c-43 0-77.979 34.979-77.979 77.974v65.517c0 42.996 34.979 77.974 77.979 77.974h614.87c13.557 0 24.544-10.992 24.544-24.544s-10.987-24.544-24.544-24.544h-12.37v-123.29h12.37c13.562 0 24.549-10.987 24.549-24.544zM335.979 226.971h553.413v123.295h-553.413c-15.93 0-28.892-12.961-28.892-28.887v-65.517c0.005-15.935 12.966-28.892 28.892-28.892zM1004.471 696.323h-979.927c-13.557 0-24.544-10.992-24.544-24.544s10.987-24.544 24.544-24.544h21.074v-209.885c-11.236-7.802-18.623-20.777-18.623-35.466 0-23.801 19.365-43.166 43.166-43.166s43.166 19.365 43.166 43.166c0 14.685-7.387 27.661-18.623 35.466v209.885h115.535v-193.505c0-13.552 10.987-24.544 24.544-24.544h559.456c13.557 0 24.544 10.992 24.544 24.544v193.505h185.69c13.557 0 24.544 10.992 24.544 24.544s-10.987 24.544-24.544 24.544z" />
<glyph unicode="&#xe904;" glyph-name="college-studying2" data-tags="college-studying" d="M158.737-89.162c0-13.552 10.987-24.544 24.544-24.544h716.263c46.239 0 83.856 37.622 83.856 83.856v92.059c0 46.234-37.617 83.856-83.856 83.856h-716.263c-13.557 0-24.544-10.992-24.544-24.544s10.987-24.544 24.544-24.544h14.868v-161.593h-14.868c-13.557 0-24.544-10.992-24.544-24.544zM53.616 202.427c0-13.552 10.987-24.544 24.544-24.544h614.874c43 0 77.979 34.979 77.979 77.974v65.517c0 42.996-34.979 77.974-77.979 77.974h-614.87c-13.557 0-24.544-10.992-24.544-24.544s10.987-24.544 24.544-24.544h12.37v-123.29h-12.37c-13.562 0-24.549-10.987-24.549-24.544zM693.035 226.971h-553.413v123.295h553.413c15.93 0 28.892-12.961 28.892-28.887v-65.517c-0.005-15.935-12.966-28.892-28.892-28.892zM24.544 696.323h979.927c13.557 0 24.544-10.992 24.544-24.544s-10.987-24.544-24.544-24.544h-21.074v-209.885c11.236-7.802 18.623-20.777 18.623-35.466 0-23.801-19.365-43.166-43.166-43.166s-43.166 19.365-43.166 43.166c0 14.685 7.387 27.661 18.623 35.466v209.885h-115.535v-193.505c0-13.552-10.987-24.544-24.544-24.544h-559.456c-13.557 0-24.544 10.992-24.544 24.544v193.505h-185.69c-13.557 0-24.544 10.992-24.544 24.544s10.987 24.544 24.544 24.544z" />
<glyph unicode="&#xe905;" glyph-name="old-fashion-briefcase" data-tags="old-fashion-briefcase" d="M564.992 195.768v22.875c0 27.853-22.61 50.442-50.442 50.442-27.873 0-50.463-22.59-50.463-50.442v-22.875c0-27.832 22.59-50.442 50.463-50.442 27.832 0 50.442 22.59 50.442 50.442zM599.583 167.873c-11.162-36.6-44.853-63.49-85.035-63.49-40.202 0-73.893 26.869-85.076 63.49h-347.53c-21.933 0-42.662 5.1-61.258 13.949v-230.752c0-45.057 36.865-81.922 81.922-81.922h823.843c45.057 0 81.922 36.865 81.922 81.922v230.731c-18.596-8.849-39.321-13.949-61.238-13.949l-347.551 0.020zM943.695 582.233h-196.652c-11.86 74.261-76.226 131.239-153.767 131.239h-157.576c-77.56 0-141.867-56.977-153.767-131.239h-196.611c-46.942 0-85.341-36.865-85.341-81.922v-189.095c0-45.22 36.682-81.922 81.922-81.922h343.661c1.167 23.532 11.285 44.772 27.282 60.069 0.489 0.448 1.065 0.841 1.579 1.289 3.541 3.256 7.229 6.328 11.264 8.992 1.432 0.963 3.072 1.62 4.565 2.476 3.317 1.905 6.593 3.892 10.179 5.365 2.807 1.167 5.838 1.844 8.788 2.726 2.537 0.759 4.957 1.763 7.596 2.293 5.737 1.167 11.652 1.783 17.694 1.783 6.063 0 11.962-0.637 17.673-1.783 2.624-0.535 5.059-1.534 7.617-2.293 2.95-0.881 5.94-1.559 8.788-2.746 3.561-1.472 6.822-3.439 10.138-5.344 1.493-0.881 3.133-1.534 4.606-2.496 4.035-2.644 7.701-5.716 11.244-8.972 0.51-0.469 1.146-0.841 1.6-1.33 16.018-15.32 26.11-36.498 27.282-60.069h343.661c45.241 0 81.922 36.682 81.922 81.922v189.095c0 45.098-38.399 81.963-85.341 81.963zM360.843 582.233c10.444 31.561 39.876 54.559 74.897 54.559h157.576c35 0 64.432-22.997 74.876-54.559h-307.349z" />
<glyph unicode="&#xe906;" glyph-name="draw-a-picture" data-tags="draw-a-picture" d="M990.354-54.208c-33.519 49.941-84.449 109.91-143.418 168.872-32.393 32.397-66.395 63.525-98.327 90.030-3.699 3.070-8.648 4.153-13.287 2.915-4.643-1.237-8.396-4.65-10.072-9.15-4.993-13.414-13.132-25.813-24.185-36.861-9.077-9.082-18.502-16.229-28.015-21.243-3.96-2.089-6.768-5.856-7.633-10.249-0.865-4.395 0.302-8.946 3.181-12.378 25.717-30.728 55.755-63.421 86.877-94.544 107.217-107.213 211.391-182.092 253.336-182.094 6.439 0 11.482 1.773 14.976 5.265 16.472 16.477-9.086 63.168-33.435 99.437zM556.128 251.627c2.643-16.724 5.634-35.685 15.348-56.602 13.21-28.447 35.542-45.427 59.729-45.432h0.005c18.282 0 36.686 9.141 54.709 27.16 25.545 25.545 33.235 59.032 20.577 89.578-16.79 40.546-64.715 66.745-122.085 66.745-12.626 0-25.82-1.215-39.213-3.617-5.242-0.94-9.579-4.621-11.355-9.642-1.78-5.022-0.724-10.612 2.761-14.642 13.532-15.646 16.309-33.203 19.524-53.546zM940.034 741.524h-925.212c-8.187 0-14.821-6.634-14.821-14.821v-628.215c0-8.187 6.634-14.821 14.821-14.821h634.469l-30.307 38.929c-61.343 0-79.619 59.136-84.974 59.136h-435.949v461.735h758.732v-461.735h-34.802l94.442-98.064h23.599c8.187 0 14.821 6.634 14.821 14.821v628.215c0 8.187-6.634 14.821-14.821 14.821zM512.336 351.030c2.784-2.598 6.407-3.985 10.113-3.985 1.373 0 2.759 0.188 4.11 0.584 9.345 2.7 23.115 6.607 35.667 9.938 3.047 0.808 5.756 2.565 7.74 5.015 3.46 4.282 7.515 8.787 10.485 12.074 14.774 16.404 35.015 38.868 26.105 65.584-4.588 13.38-13.729 23.265-26.442 28.583-6.725 2.815-14.020 4.18-22.314 4.18-28.699 0-64.853-17.374-103.134-35.767-17.076-8.203-44.285-21.277-60.165-25.883 3.755 9.486 11.164 22.72 16.377 32.041 9.052 16.163 18.411 32.876 23.222 49.183 10.476 35.521-5.844 54.582-16.595 62.855-0.016 0.011-0.193 0.145-0.209 0.159-9.645 7.236-20.391 10.907-31.929 10.907-33.012 0-66.285-29.264-93.020-52.777-10.953-9.631-19.467-16.928-25.436-21.224-4.766-3.426-7.059-9.343-5.849-15.087l5.99-28.451c0.958-4.548 3.994-8.385 8.196-10.36 4.212-1.98 9.102-1.869 13.214 0.295 12.818 6.748 26.127 18.457 41.551 32.022 12.63 11.112 25.697 22.6 37.678 30.433 5.052 3.301 8.837 5.233 11.556 6.362-3.41-10.217-12.696-26.796-18.109-36.463-9.191-16.424-18.695-33.411-23.17-49.685-10.533-38.332 11.734-56.328 21.715-62.233 7.368-4.43 15.652-6.582 25.327-6.582 25.459 0 57.374 15.335 94.333 33.089 18.413 8.848 37.456 17.996 53.496 23.896 1.242 0.456 2.456 0.892 3.651 1.301-11.307-12.574-24.655-28.008-28.533-46.061-1.103-5.095 0.563-10.392 4.373-13.95z" />
<glyph unicode="&#xe907;" glyph-name="draw-a-picture2" data-tags="draw-a-picture" d="M38.661-54.208c33.519 49.941 84.449 109.91 143.418 168.872 32.393 32.397 66.395 63.525 98.327 90.030 3.699 3.070 8.648 4.153 13.287 2.915 4.643-1.237 8.396-4.65 10.072-9.15 4.993-13.414 13.132-25.813 24.185-36.861 9.077-9.082 18.502-16.229 28.015-21.243 3.96-2.089 6.768-5.856 7.633-10.249 0.865-4.395-0.302-8.946-3.181-12.378-25.717-30.728-55.755-63.421-86.877-94.544-107.217-107.213-211.391-182.092-253.336-182.094-6.439 0-11.482 1.773-14.976 5.265-16.472 16.477 9.086 63.168 33.435 99.437zM472.887 251.627c-2.643-16.724-5.634-35.685-15.348-56.602-13.21-28.447-35.542-45.427-59.729-45.432h-0.005c-18.282 0-36.686 9.141-54.709 27.16-25.545 25.545-33.235 59.032-20.577 89.578 16.79 40.546 64.715 66.745 122.085 66.745 12.626 0 25.82-1.215 39.213-3.617 5.242-0.94 9.579-4.621 11.355-9.642 1.78-5.022 0.724-10.612-2.761-14.642-13.532-15.646-16.309-33.203-19.524-53.546zM88.981 741.524h925.212c8.187 0 14.821-6.634 14.821-14.821v-628.215c0-8.187-6.634-14.821-14.821-14.821h-634.469l30.307 38.929c61.343 0 79.619 59.136 84.974 59.136h435.949v461.735h-758.732v-461.735h34.802l-94.442-98.064h-23.599c-8.187 0-14.821 6.634-14.821 14.821v628.215c0 8.187 6.634 14.821 14.821 14.821zM516.679 351.030c-2.784-2.598-6.407-3.985-10.113-3.985-1.373 0-2.759 0.188-4.11 0.584-9.345 2.7-23.115 6.607-35.667 9.938-3.047 0.808-5.756 2.565-7.74 5.015-3.46 4.282-7.515 8.787-10.485 12.074-14.774 16.404-35.015 38.868-26.105 65.584 4.588 13.38 13.729 23.265 26.442 28.583 6.725 2.815 14.020 4.18 22.314 4.18 28.699 0 64.853-17.374 103.134-35.767 17.076-8.203 44.285-21.277 60.165-25.883-3.755 9.486-11.164 22.72-16.377 32.041-9.052 16.163-18.411 32.876-23.222 49.183-10.476 35.521 5.844 54.582 16.595 62.855 0.016 0.011 0.193 0.145 0.209 0.159 9.645 7.236 20.391 10.907 31.929 10.907 33.012 0 66.285-29.264 93.020-52.777 10.953-9.631 19.467-16.928 25.436-21.224 4.766-3.426 7.059-9.343 5.849-15.087l-5.99-28.451c-0.958-4.548-3.994-8.385-8.196-10.36-4.212-1.98-9.102-1.869-13.214 0.295-12.818 6.748-26.127 18.457-41.551 32.022-12.63 11.112-25.697 22.6-37.678 30.433-5.052 3.301-8.837 5.233-11.556 6.362 3.41-10.217 12.696-26.796 18.109-36.463 9.191-16.424 18.695-33.411 23.17-49.685 10.533-38.332-11.734-56.328-21.715-62.233-7.368-4.43-15.652-6.582-25.327-6.582-25.459 0-57.374 15.335-94.333 33.089-18.413 8.848-37.456 17.996-53.496 23.896-1.242 0.456-2.456 0.892-3.651 1.301 11.307-12.574 24.655-28.008 28.533-46.061 1.103-5.095-0.563-10.392-4.373-13.95z" />
<glyph unicode="&#xe908;" glyph-name="laptop" data-tags="laptop" d="M1027.748 52.839c-0.983 1.141-2.428 1.819-3.953 1.819h-1018.576c-1.519 0-2.959-0.667-3.953-1.819-0.993-1.141-1.435-2.675-1.214-4.184 0.147-0.951 15.511-95.268 134.753-95.268h759.401c119.231 0 134.595 94.317 134.753 95.268 0.21 1.509-0.231 3.043-1.214 4.184zM591.109-13.581h-153.213v35.227h153.213v-35.227zM111.021 91.321h806.961c11.664 0 21.135 9.466 21.135 21.135v495.631c0 11.664-9.466 21.135-21.135 21.135h-806.961c-11.664 0-21.135-9.466-21.135-21.135v-495.631c0-11.664 9.466-21.135 21.135-21.135zM163.855 555.255h701.296v-389.965h-701.296v389.965z" />
<glyph unicode="&#xe909;" glyph-name="html-5-logotype" data-tags="html-5-logotype" d="M154.786-123.932l347.026-97.926c6.304-1.779 16.518-1.79 22.81-0.025l349.598 97.976c6.304 1.767 11.875 8.483 12.465 15.004l80.363 902.917c0.585 6.518-4.265 11.804-10.807 11.804h-883.485c-6.539 0-11.375-5.283-10.797-11.804l80.365-902.917c0.581-6.516 6.15-13.25 12.451-15.029zM241.562 616.394h545.869c6.539 0 11.364-5.283 10.771-11.804l-8.154-89.148c-0.595-6.516-6.387-11.802-12.93-11.802h-410.552c-6.539 0-11.412-5.283-10.868-11.817l7.703-93.011c0.548-6.516 6.281-11.817 12.834-11.817h391.24c6.539 0 11.364-5.283 10.769-11.804l-30.051-326.892c-0.606-6.516-6.196-13.214-12.513-14.958l-208.462-57.495c-6.306-1.742-11.425-3.293-11.425-3.458s-0.583-0.318-1.29-0.318-6.398 1.408-12.712 3.152l-210.396 58.126c-6.304 1.742-11.841 8.447-12.359 14.967l-12.301 155.506c-0.507 6.527 4.371 11.817 10.917 11.817h89.054c6.539 0 12.347-5.283 12.954-11.804l6.186-66.608c0.606-6.516 6.221-13.191 12.536-14.895l103.403-27.964c6.315-1.708 16.566-1.721 22.881-0.012l104.041 27.987c6.315 1.696 11.958 8.352 12.584 14.872l11.9 123.299c0.629 6.516-4.17 11.789-10.711 11.789h-370.619c-6.539 0-12.313 5.283-12.896 11.804l-28.201 320.47c-0.571 6.527 4.265 11.817 10.809 11.817z" />
<glyph unicode="&#xe90a;" glyph-name="website-design-symbol" data-tags="website-design-symbol" d="M647.497-168.96c-17.821 13.111-19.735 32.805-19.735 32.805l-6.691 42.757h-213.15l-6.711-42.726c0 0-1.863-19.715-19.694-32.826-17.821-13.111-31.889-24.368-17.821-26.283 13.551-1.833 141.388-0.164 150.812 0 9.445-0.164 137.251-1.833 150.792 0 14.058 1.894-0.020 13.131-17.8 26.273zM274.397 172.581c56.946 0.44 64.035 14.17 82.599 71.342 34.233 90.224 188.402-23.626 92.859-63.141-95.543-39.535-232.403-8.642-175.457-8.201zM858.301 767.166c-27.66 22.269-73.42 11.299-102.264-24.491l-292.137-415.064c-28.843-35.779-28.699-28.945-1.070-51.194 27.629-22.269 20.969-23.862 49.816 11.918l343.443 373.708c28.843 35.81 29.851 82.868 2.212 105.124zM783.173 717.486c0 0-4.28 4.971-18.512 16.351 21.343 34.853 63.286 28.464 63.286 28.464-39.762-23.483-44.774-44.815-44.774-44.815zM987.855 626.91h-128.461l-56.749-61.74h164.642v-493.926h-905.533v493.926h526.752l43.494 61.74h-590.839c-22.73 0-41.16-18.43-41.16-41.16v-596.829c0-22.73 18.43-41.16 41.16-41.16h946.695c22.73 0 41.16 18.43 41.16 41.16v596.829c0 22.73-18.43 41.16-41.16 41.16z" />
<glyph unicode="&#xe90b;" glyph-name="website-design-symbol2" data-tags="website-design-symbol" d="M381.517-168.96c17.821 13.111 19.735 32.805 19.735 32.805l6.691 42.757h213.15l6.711-42.726c0 0 1.863-19.715 19.694-32.826 17.821-13.111 31.889-24.368 17.821-26.283-13.551-1.833-141.388-0.164-150.812 0-9.445-0.164-137.251-1.833-150.792 0-14.058 1.894 0.020 13.131 17.8 26.273zM754.617 172.581c-56.946 0.44-64.035 14.17-82.599 71.342-34.233 90.224-188.402-23.626-92.859-63.141 95.543-39.535 232.403-8.642 175.457-8.201zM170.714 767.166c27.66 22.269 73.42 11.299 102.264-24.491l292.137-415.064c28.843-35.779 28.699-28.945 1.070-51.194-27.629-22.269-20.969-23.862-49.816 11.918l-343.443 373.708c-28.843 35.81-29.851 82.868-2.212 105.124zM245.842 717.486c0 0 4.28 4.971 18.512 16.351-21.343 34.853-63.286 28.464-63.286 28.464 39.762-23.483 44.774-44.815 44.774-44.815zM41.16 626.91h128.461l56.749-61.74h-164.642v-493.926h905.533v493.926h-526.752l-43.494 61.74h590.839c22.73 0 41.16-18.43 41.16-41.16v-596.829c0-22.73-18.43-41.16-41.16-41.16h-946.695c-22.73 0-41.16 18.43-41.16 41.16v596.829c0 22.73 18.43 41.16 41.16 41.16z" />
<glyph unicode="&#xe90c;" glyph-name="black-graduation-cap-tool-of-university-student-for-head" data-tags="black-graduation-cap-tool-of-university-student-for-head" d="M805.405 252.935v-161.273c0 0-154.648 64.427-291.767 64.427s-291.799-64.427-291.799-64.427v163.526c0 0 147.541 78.031 294.082 78.031 146.478 0.064 289.483-80.282 289.483-80.282zM58.025 291.341l-58.025 31.198 58.025 32.131v15.247c0 0-16.34 82.858 76.521 39.531 4.73-2.576 7.269-5.178 8.298-7.722l382.954 212.384 503.217-288.003-190.029-86.329v28.014c0 0-159.441 89.513-322.869 89.513-163.397 0-327.856-87.007-327.856-87.007v-48.924l-104.92 56.353c0-65.263 0-204.857 0-228.145h34.931v-81.087l-46.445 32.099-51.559-32.099v81.119h37.762v241.718zM83.37 384.008c0-1.962 0-7.365 0-15.279l30.622 16.985c-11.162 7.397-30.622 17.657-30.622-1.706zM93.727 294.526c13.54 0 24.574 10.97 24.574 24.51s-11.034 24.542-24.574 24.542c-13.572 0-24.542-11.002-24.542-24.542s10.97-24.51 24.542-24.51z" />
<glyph unicode="&#xe90d;" glyph-name="black-graduation-cap-tool-of-university-student-for-head2" data-tags="black-graduation-cap-tool-of-university-student-for-head" d="M223.61 252.935v-161.273c0 0 154.648 64.427 291.767 64.427s291.799-64.427 291.799-64.427v163.526c0 0-147.541 78.031-294.082 78.031-146.478 0.064-289.483-80.282-289.483-80.282zM970.989 291.341l58.025 31.198-58.025 32.131v15.247c0 0 16.34 82.858-76.521 39.531-4.73-2.576-7.269-5.178-8.298-7.722l-382.954 212.384-503.217-288.003 190.029-86.329v28.014c0 0 159.441 89.513 322.869 89.513 163.397 0 327.856-87.007 327.856-87.007v-48.924l104.92 56.353c0-65.263 0-204.857 0-228.145h-34.931v-81.087l46.445 32.099 51.559-32.099v81.119h-37.762v241.718zM945.644 384.008c0-1.962 0-7.365 0-15.279l-30.622 16.985c11.162 7.397 30.622 17.657 30.622-1.706zM935.287 294.526c-13.54 0-24.574 10.97-24.574 24.51s11.034 24.542 24.574 24.542c13.572 0 24.542-11.002 24.542-24.542s-10.97-24.51-24.542-24.51z" />
<glyph unicode="&#xe90e;" glyph-name="chevron-with-circle-right" data-tags="chevron-with-circle-right" d="M565.959 297.74l-118.439 128.936c-10.085 10.188-10.085 26.703 0 36.942 10.085 10.136 26.498 10.136 36.532 0l144.422-147.355c10.085-10.239 10.085-26.754 0-36.89l-144.422-147.355c-10.034-10.239-26.447-10.188-36.532 0-10.085 10.136-10.085 26.652 0 36.89l118.439 128.833zM514.506 791.667c272.791 0 493.926-221.136 493.926-493.926 0-272.843-221.136-493.926-493.926-493.926s-493.926 221.083-493.926 493.926c0 272.791 221.136 493.926 493.926 493.926zM514.506-132.080c237.343 0 429.82 192.426 429.82 429.82s-192.477 429.82-429.82 429.82c-237.445 0-429.82-192.426-429.82-429.82-0.051-237.394 192.374-429.82 429.82-429.82z" />
<glyph unicode="&#xe90f;" glyph-name="up-arrow" data-tags="up-arrow" d="M1029.015 291.309c0 281.522-232.986 514.506-514.506 514.506s-514.506-232.986-514.506-514.506 232.986-514.506 514.506-514.506 514.506 228.13 514.506 514.506zM48.537 291.309c0 257.253 208.715 465.969 465.969 465.969s465.969-208.715 465.969-465.969-208.715-465.969-465.969-465.969-465.969 208.715-465.969 465.969zM674.684 281.6c9.706 9.706 9.706 24.27 0 33.976l-232.984 257.253c-9.706 9.706-24.27 9.706-33.976 0s-9.706-24.27 0-33.976l218.423-242.692-218.423-247.546c-4.855-4.855-4.855-9.706-4.855-14.561s4.855-14.561 9.706-19.415c9.706-9.706 24.27-9.706 33.976 0l228.128 266.96z" />
<glyph unicode="&#xe910;" glyph-name="up-arrow2" data-tags="up-arrow" d="M0 291.309c0 281.522 232.986 514.506 514.506 514.506s514.506-232.986 514.506-514.506-232.986-514.506-514.506-514.506-514.506 228.13-514.506 514.506zM980.477 291.309c0 257.253-208.715 465.969-465.969 465.969s-465.969-208.715-465.969-465.969 208.715-465.969 465.969-465.969 465.969 208.715 465.969 465.969zM354.331 281.6c-9.706 9.706-9.706 24.27 0 33.976l232.984 257.253c9.706 9.706 24.27 9.706 33.976 0s9.706-24.27 0-33.976l-218.423-242.692 218.423-247.546c4.855-4.855 4.855-9.706 4.855-14.561s-4.855-14.561-9.706-19.415c-9.706-9.706-24.27-9.706-33.976 0l-228.128 266.96z" />
<glyph unicode="&#xe911;" glyph-name="up-arrow3" data-tags="up-arrow" d="M514.506-223.199c-281.522 0-514.506 232.986-514.506 514.506s232.986 514.506 514.506 514.506 514.506-232.986 514.506-514.506-228.13-514.506-514.506-514.506zM514.506 757.278c-257.253 0-465.969-208.715-465.969-465.969s208.715-465.969 465.969-465.969 465.969 208.715 465.969 465.969-208.715 465.969-465.969 465.969zM524.215 131.132c-9.706-9.706-24.27-9.706-33.976 0l-257.253 232.984c-9.706 9.706-9.706 24.27 0 33.976s24.27 9.706 33.976 0l242.692-218.423 247.546 218.423c4.855 4.855 9.706 4.855 14.561 4.855s14.561-4.855 19.415-9.706c9.706-9.706 9.706-24.27 0-33.976l-266.96-228.128z" />
<glyph unicode="&#xe912;" glyph-name="up-arrow4" data-tags="up-arrow" d="M514.506 805.816c-281.522 0-514.506-232.986-514.506-514.506s232.986-514.506 514.506-514.506 514.506 232.986 514.506 514.506-228.13 514.506-514.506 514.506zM514.506-174.659c-257.253 0-465.969 208.715-465.969 465.969s208.715 465.969 465.969 465.969 465.969-208.715 465.969-465.969-208.715-465.969-465.969-465.969zM524.215 451.485c-9.706 9.706-24.27 9.706-33.976 0l-257.253-232.984c-9.706-9.706-9.706-24.27 0-33.976s24.27-9.706 33.976 0l242.692 218.423 247.546-218.423c4.855-4.855 9.706-4.855 14.561-4.855s14.561 4.855 19.415 9.706c9.706 9.706 9.706 24.27 0 33.976l-266.96 228.128z" />
<glyph unicode="&#xe913;" glyph-name="bus" data-tags="bus" d="M732.079 151.97c-45.475 0-82.465-38.004-82.465-84.711s36.99-84.711 82.465-84.711c45.477 0 82.465 38.006 82.465 84.711 0 46.707-36.988 84.711-82.465 84.711zM732.079 26.336c-21.327 0-38.68 18.357-38.68 40.924 0 22.569 17.351 40.924 38.68 40.924 21.331 0 38.68-18.355 38.68-40.924-0.002-22.567-17.351-40.924-38.68-40.924zM296.925 151.97c-45.475 0-82.465-38.004-82.465-84.711s36.99-84.711 82.465-84.711c45.477 0 82.465 38.006 82.465 84.711 0 46.707-36.988 84.711-82.465 84.711zM296.925 26.336c-21.327 0-38.68 18.357-38.68 40.924 0 22.569 17.351 40.924 38.68 40.924 21.331 0 38.68-18.355 38.68-40.924 0-22.567-17.349-40.924-38.68-40.924zM446.026 89.153h136.955v-43.789h-136.955v43.789zM968.785 682.834h-37.931c-9.612 69.38-69.289 122.983-141.274 122.983h-550.157c-71.984 0-131.659-53.602-141.276-122.983h-37.918c-33.214 0-60.232-27.658-60.232-61.65v-195.154c0-33.995 27.013-61.65 60.232-61.65h36.532v-323.61c0-68.715 48.849-126.239 113.64-139.687v-38.511c0-47.294 36.434-85.77 81.203-85.77h12.762c44.772 0 81.203 38.474 81.203 85.77v35.536h257.873v-35.536c0-47.294 36.434-85.77 81.203-85.77h12.751c44.772 0 81.203 38.474 81.203 85.77v38.511c64.791 13.446 113.64 70.972 113.64 139.687v323.608h36.542c33.21 0 60.23 27.656 60.23 61.65v195.156c0 33.993-27.013 61.65-60.23 61.65zM239.425 762.028h550.159c54.52 0 98.875-44.354 98.875-98.864v-44.416h-747.911v44.416c0 54.51 44.351 98.864 98.875 98.864zM140.549 574.959h349.554v-330.003h-349.554v330.003zM533.89 574.959h354.567v-330.003h-354.567v330.003zM60.232 408.164c-9.067 0-16.443 8.019-16.443 17.861v195.156c0 9.847 7.374 17.861 16.443 17.861h36.532v-230.879h-36.532zM341.783-137.43c0-23.149-16.782-41.982-37.416-41.982h-12.762c-20.632 0-37.416 18.833-37.416 41.982v35.536h87.598v-35.536zM737.402-179.411h-12.751c-20.632 0-37.416 18.833-37.416 41.982v35.536h87.585v-35.536c0-23.149-16.782-41.982-37.416-41.982zM789.582-58.107h-550.157c-54.522 0-98.875 44.354-98.875 98.875v160.398h747.909v-160.398c0-54.52-44.354-98.875-98.875-98.875zM985.226 426.028c0-9.847-7.374-17.861-16.439-17.861h-36.542v230.881h36.542c9.065 0 16.439-8.019 16.439-17.861v-195.156z" />
<glyph unicode="&#xe914;" glyph-name="help" data-tags="help" d="M55.042 236.268c0.799-10.369 2.391-20.739 4.788-30.313 0.799-3.989 1.598-7.978 2.391-11.967 5.582-27.119 13.56-53.444 24.728-78.172 1.598-3.989 3.19-7.978 4.788-11.168 3.989-8.777 7.978-17.549 12.761-26.325 2.391-3.989 3.989-7.978 6.38-11.967 4.788-8.777 10.369-17.549 15.956-26.325 1.598-2.391 3.19-5.582 5.582-7.978 0.799-0.799 0.799-1.598 1.598-2.391s1.598-1.598 1.598-2.391c12.761-18.347 27.119-35.896 43.075-52.646 0 0 0.799-0.799 0.799-1.598 0.799-1.598 2.391-2.391 3.989-3.989 3.19-3.19 6.38-6.38 9.571-9.571 1.598-0.799 2.391-2.391 3.989-3.989 0 0 0.799-0.799 0.799-0.799 16.75-15.956 35.097-31.108 54.243-44.671 0.799-0.799 1.598-1.598 2.391-1.598 11.967-7.978 24.728-15.157 36.695-22.336 2.391-1.598 5.582-3.19 7.978-3.989 9.571-5.582 19.94-10.369 30.313-14.358 3.19-1.598 5.582-2.391 8.777-3.989 25.527-10.369 52.646-19.146 79.77-24.728 3.19-0.799 7.179-1.598 10.369-2.391 10.369-1.598 20.739-3.989 31.907-4.788 3.989-0.799 7.978-0.799 11.967-1.598 14.358-1.598 27.918-2.391 42.276-2.391 96.52 0 185.861 29.516 259.247 79.77 0 0 0.799 0 0.799 0.799 11.168 7.179 21.538 15.157 31.907 23.929 1.598 1.598 3.19 2.391 4.788 3.989 7.179 6.38 14.358 12.761 21.538 19.94l3.19 3.19c3.19 3.19 6.38 6.38 9.571 9.571l3.989 3.989c3.989 3.989 7.179 8.777 11.168 12.761 3.989 4.788 8.777 8.777 11.967 14.358 7.978 9.571 15.157 19.146 22.336 29.516 0 0 0 0.799 0.799 0.799 51.053 74.183 81.362 164.322 81.362 261.642 0 14.358-0.799 28.717-2.391 42.276 0 3.989-0.799 7.978-1.598 11.967-1.598 10.369-3.19 21.538-4.788 31.907-0.799 3.19-1.598 7.179-2.391 10.369-5.582 27.119-14.358 54.243-24.728 79.77-1.598 3.19-2.391 5.582-3.989 8.777-4.788 10.369-9.571 19.94-14.358 30.313-1.598 2.391-2.391 5.582-3.989 7.978-7.179 12.761-14.358 24.728-22.336 36.695-0.799 0.799-1.598 1.598-2.391 2.391-5.582 7.978-11.967 15.956-17.549 23.929 0 0.799 0 0.799-0.799 1.598s-1.598 1.598-1.598 2.391c-20.739 26.325-44.671 49.456-70.993 70.993-0.799 0.799-1.598 1.598-2.391 1.598 0 0-0.799 0-1.598 0.799-7.179 5.582-14.358 11.168-21.538 15.956-0.799 0.799-1.598 1.598-2.391 1.598-0.799 0.799-1.598 0.799-2.391 1.598-2.391 1.598-5.582 3.19-7.978 4.788-8.777 5.582-17.549 11.168-27.119 15.956-3.989 2.391-7.978 3.989-11.967 6.38-8.777 4.788-17.549 8.777-26.325 12.761-3.989 1.598-7.179 3.19-11.168 4.788-25.527 10.369-51.85 18.347-78.971 24.728-3.989 0.799-7.978 1.598-11.967 2.391-10.369 1.598-20.739 3.19-31.108 4.788-3.989 0.799-7.978 0.799-12.761 1.598-14.358 1.598-27.918 2.391-42.276 2.391-97.318 0-187.457-30.313-261.642-81.362 0 0-0.799 0-0.799-0.799-8.777-5.582-16.75-11.967-24.728-18.347-0.799-0.799-1.598-0.799-1.598-1.598-26.325-20.739-49.456-44.671-70.993-70.993-0.799-0.799-1.598-1.598-1.598-1.598-7.179-8.777-14.358-17.549-20.739-27.119 0 0 0-0.799 0-0.799-50.254-74.183-79.77-163.526-79.77-260.045 0-14.358 0.799-28.717 2.391-42.276 2.391-5.582 2.391-10.369 3.19-14.358zM269.618-21.384c-10.369 8.777-20.739 17.549-31.108 26.325l-10.369 10.369c-8.777 8.777-17.549 18.347-25.527 28.717l124.439 124.439c17.549-26.325 39.885-48.658 66.208-65.411l-123.642-124.439zM355.767 291.309c0 19.146 3.989 37.493 9.571 54.243 1.598 5.582 3.989 10.369 6.38 15.157s4.788 9.571 7.978 14.358c18.347 28.717 44.671 50.254 76.579 63.016 17.549 7.179 36.695 10.369 56.635 10.369 4.788 0 10.369 0 15.157-0.799 3.19 0 6.38-0.799 9.571-1.598 1.598 0 3.19-0.799 4.788-0.799 3.989-0.799 8.777-1.598 12.761-3.19 0 0 0.799 0 1.598 0 4.788-1.598 8.777-2.391 13.56-4.788 43.075-16.75 76.579-50.254 92.531-93.329 1.598-3.989 3.19-8.777 3.989-12.761 0 0 0-0.799 0-0.799 0.799-3.989 1.598-7.978 2.391-11.967 0-1.598 0.799-3.19 0.799-4.788 0.799-3.19 0.799-6.38 1.598-8.777 0.799-4.788 0.799-9.571 0.799-14.358 0-19.94-3.989-39.086-10.369-56.635-11.967-31.907-34.298-59.029-63.016-76.579-4.788-3.19-9.571-5.582-14.358-7.978s-10.369-4.788-15.157-6.38c-16.75-6.38-35.097-9.571-54.243-9.571-4.788 0-9.571 0-14.358 0.799-3.19 0-5.582 0.799-8.777 1.598-1.598 0-3.19 0.799-4.788 0.799-3.989 0.799-7.978 1.598-11.967 2.391 0 0-0.799 0-0.799 0-3.989 1.598-8.777 2.391-12.761 3.989-43.075 15.956-77.374 49.456-93.329 92.531-1.598 4.788-3.19 8.777-4.788 13.56 0 0 0 0.799 0 0.799-0.799 3.989-2.391 7.978-3.19 12.761 0 1.598-0.799 3.19-0.799 4.788-0.799 3.19-0.799 6.38-1.598 9.571-2.391 3.989-2.391 9.571-2.391 14.358zM514.506-106.736c-11.967 0-24.728 0.799-36.695 1.598-2.391 0-4.788 0.799-7.179 0.799-11.967 1.598-23.135 3.19-34.298 5.582-1.598 0-3.19 0.799-5.582 0.799-11.168 2.391-21.538 4.788-32.706 7.978-0.799 0-1.598 0.799-3.19 0.799-11.168 3.19-22.336 7.978-33.505 11.967-1.598 0.799-3.19 1.598-4.788 2.391-11.168 4.788-21.538 9.571-32.706 15.956l133.214 133.214c0.799 0 1.598 0 2.391 0 7.179-1.598 15.157-3.19 22.336-4.788 1.598 0 3.989-0.799 5.582-0.799 8.777-0.799 17.549-1.598 26.325-1.598 19.94 0 38.287 2.391 56.635 7.179l133.214-133.214c-55.837-30.313-120.451-47.863-189.051-47.863zM824.010 41.633c-4.788-5.582-9.571-11.168-14.358-15.956-3.19-3.19-6.38-7.179-9.571-10.369l-9.571-9.571c-6.38-6.38-12.761-12.761-19.94-18.347-1.598-1.598-3.989-3.19-5.582-4.788s-3.19-2.391-4.788-3.989l-125.236 124.439c0 0 0.799 0 0.799 0.799 5.582 3.989 11.168 7.978 16.75 11.967 0.799 0.799 1.598 0.799 1.598 1.598 18.347 14.358 33.505 31.907 47.064 51.053l124.439-124.439c-0.799-0.799-0.799-1.598-1.598-2.391zM863.894 481.156c5.582-10.369 11.168-21.538 15.956-32.706 0.799-1.598 1.598-3.19 2.391-4.788 4.788-11.168 8.777-22.336 11.967-33.505 0-0.799 0.799-1.598 0.799-3.19 3.19-10.369 6.38-21.538 8.777-32.706 0-1.598 0.799-3.19 0.799-5.582 2.391-11.168 3.989-23.135 5.582-34.298 0-2.391 0.799-4.788 0.799-7.179 0.799-11.967 1.598-23.929 1.598-36.695 0-69.4-18.347-134.809-49.456-192.242l-133.214 133.214c5.582 19.146 7.978 39.086 7.978 59.825 0 8.777-0.799 18.347-1.598 27.119 0 1.598-0.799 3.19-0.799 4.788-0.799 7.978-2.391 15.157-4.788 23.135 0 0.799 0 1.598 0 1.598l133.214 133.214zM761.79 602.407l63.814-63.814c0.799-0.799 0.799-0.799 1.598-1.598l-124.439-125.236c-16.75 26.325-39.086 48.658-65.411 66.208l124.439 124.439zM514.506 689.352c11.967 0 24.728-0.799 36.695-1.598 2.391 0 4.788-0.799 7.179-0.799 11.967-1.598 23.135-3.19 34.298-5.582 1.598 0 3.989-0.799 5.582-1.598 10.369-2.391 19.94-4.788 30.313-7.978 1.598-0.799 3.989-0.799 5.582-1.598 11.168-3.19 21.538-7.179 31.907-11.967 2.391-0.799 4.788-2.391 7.179-3.19 8.777-3.989 18.347-7.978 27.119-12.761 1.598-0.799 3.19-1.598 4.788-2.391 0.799 0 0.799-0.799 1.598-0.799l-132.416-132.416c-0.799 0-1.598 0-2.391 0.799-7.978 2.391-15.956 3.989-23.929 4.788-2.391 0-3.989 0.799-6.38 0.799-8.777 0.799-18.347 1.598-27.918 1.598-20.739 0-40.684-3.19-59.825-7.978l-131.618 132.416c57.433 31.907 122.844 50.254 192.242 50.254zM203.41 537.795l64.613 64.613 124.439-124.439c-19.146-12.761-36.695-28.717-51.053-47.064-0.799-0.799-0.799-1.598-1.598-1.598-3.989-5.582-7.978-11.168-11.967-16.75 0 0 0-0.799-0.799-0.799l-125.236 124.439c0.799 0.799 0.799 1.598 1.598 1.598zM165.121 481.156l133.214-133.214c-4.788-18.347-7.179-36.695-7.179-56.635 0-9.571 0.799-18.347 1.598-27.918 0-2.391 0.799-3.989 0.799-6.38 1.598-7.978 3.19-15.956 4.788-23.929 0-0.799 0-1.598 0.799-2.391l-132.416-131.618c0 0.799-0.799 0.799-0.799 1.598-0.799 1.598-1.598 3.19-2.391 5.582-4.788 8.777-8.777 17.549-12.761 26.325-0.799 2.391-2.391 4.788-3.19 7.179-3.989 10.369-7.978 20.739-11.967 31.907-0.799 2.391-0.799 3.989-1.598 6.38-3.19 9.571-5.582 19.94-7.978 29.516-0.799 1.598-0.799 3.989-1.598 5.582-2.391 11.168-3.989 22.336-5.582 34.298 0 2.391-0.799 4.788-0.799 7.978-0.799 11.967-1.598 23.929-1.598 36.695 0 67.803 17.549 132.416 48.658 189.051z" />
<glyph unicode="&#xe915;" glyph-name="help-button" data-tags="help-button" d="M502.199 75.904c-20.311 0-36.926-16.616-36.926-36.926v-24.617c0-20.311 16.616-36.926 36.926-36.926s36.926 16.616 36.926 36.926v24.617c0 20.311-16.616 36.926-36.926 36.926zM514.507-223.199c283.719 0 514.507 230.79 514.507 514.507s-230.792 514.505-514.507 514.505-514.507-230.79-514.507-514.507 230.79-514.505 514.507-514.505zM514.507 731.963c243.099 0 440.655-197.556 440.655-440.655s-197.556-440.655-440.655-440.655-440.655 197.559-440.655 440.655 197.556 440.655 440.655 440.655zM354.494 383.623c0.617 0 0.617 0 0 0 20.311 0 36.926 15.385 36.926 35.696 0 0 0.617 29.542 15.385 58.468 18.463 36.926 51.083 55.39 99.087 55.39 44.927 0 78.159-12.31 96.622-36.31 15.385-19.694 19.694-46.774 12.31-76.313-9.232-36.31-40.621-67.699-70.775-98.47-36.926-38.157-75.7-76.931-75.7-129.243 0-20.311 16.616-36.926 36.926-36.926s36.926 16.616 36.926 36.926c0 22.158 26.464 49.236 54.773 77.547 35.079 35.696 75.083 76.313 89.238 131.703 13.538 51.083 4.306 102.162-25.236 139.705-22.77 29.542-68.315 65.237-154.476 65.237-96.622 0-142.781-51.695-164.937-96.009s-23.388-86.777-23.388-91.7c0-19.692 16.004-35.696 36.31-35.696z" />
<glyph unicode="&#xe916;" glyph-name="padlock" data-tags="padlock" d="M172.273 395.974h104.561v172.167c0 130.805 106.869 237.675 237.675 237.675s237.675-106.66 237.675-237.465c0-23.934-19.526-43.673-43.673-43.673s-43.673 19.526-43.673 43.673c0 82.935-67.608 150.332-150.332 150.332-82.935 0-150.332-67.608-150.332-150.332v-172.167h492.567c23.934 0 43.673-19.526 43.673-43.673v-532.040c0-23.934-19.526-43.673-43.673-43.673h-684.469c-23.934 0-43.673 19.526-43.673 43.673v532.040c0 23.934 19.735 43.46 43.673 43.46zM213.634-135.855h599.646v444.695h-599.436v-444.695h-0.209zM514.506-68.249c-23.934 0-43.673 19.526-43.673 43.673v113.379c0 23.934 19.526 43.673 43.673 43.673s43.673-19.526 43.673-43.673v-113.379c0-24.147-19.735-43.673-43.673-43.673z" />
<glyph unicode="&#xe917;" glyph-name="padlock2" data-tags="padlock" d="M856.742 395.974h-104.561v172.167c0 130.805-106.869 237.675-237.675 237.675s-237.675-106.66-237.675-237.465c0-23.934 19.526-43.673 43.673-43.673s43.673 19.526 43.673 43.673c0 82.935 67.608 150.332 150.332 150.332 82.935 0 150.332-67.608 150.332-150.332v-172.167h-492.567c-23.934 0-43.673-19.526-43.673-43.673v-532.040c0-23.934 19.526-43.673 43.673-43.673h684.469c23.934 0 43.673 19.526 43.673 43.673v532.040c0 23.934-19.735 43.46-43.673 43.46zM815.38-135.855h-599.646v444.695h599.436v-444.695h0.209zM514.506-68.249c23.934 0 43.673 19.526 43.673 43.673v113.379c0 23.934-19.526 43.673-43.673 43.673s-43.673-19.526-43.673-43.673v-113.379c0-24.147 19.735-43.673 43.673-43.673z" />
<glyph unicode="&#xe918;" glyph-name="open-padlock" data-tags="open-padlock" d="M764.073-223.199h-499.13c-81.021 0-146.665 63.869-146.665 144.89v324.079c0 65.644 41.395 121.828 106.451 140.159v155.536c0 144.89 115.321 264.35 260.209 264.35h59.14c144.89 0 263.168-118.87 263.168-263.76 0-19.516-15.97-35.485-35.485-35.485s-35.485 16.557-35.485 36.073c0 105.858-86.343 192.203-192.201 192.203h-59.14c-105.858 0-189.245-87.523-189.245-193.383v-149.621h468.38c81.021 0 146.665-65.644 146.665-146.665v-324.081c-0.002-80.427-65.646-144.299-146.665-144.299zM189.245-76.534c0-41.99 33.71-75.699 75.699-75.699h499.13c41.99 0 75.699 33.71 75.699 75.699v321.714c0 41.99-33.71 75.699-75.699 75.699h-499.13c-41.99 0-75.699-33.71-75.699-75.699v-321.714zM526.335-63.523c-19.516 0-35.485 15.97-35.485 35.485v112.363c0 19.516 15.97 35.485 35.485 35.485s35.485-15.97 35.485-35.485v-112.363c0-19.516-15.97-35.485-35.485-35.485z" />
<glyph unicode="&#xe919;" glyph-name="open-padlock2" data-tags="open-padlock" d="M264.941-223.199h499.13c81.021 0 146.665 63.869 146.665 144.89v324.079c0 65.644-41.395 121.828-106.451 140.159v155.536c0 144.89-115.321 264.35-260.209 264.35h-59.14c-144.89 0-263.168-118.87-263.168-263.76 0-19.516 15.97-35.485 35.485-35.485s35.485 16.557 35.485 36.073c0 105.858 86.343 192.203 192.201 192.203h59.14c105.858 0 189.245-87.523 189.245-193.383v-149.621h-468.38c-81.021 0-146.665-65.644-146.665-146.665v-324.081c0.002-80.427 65.646-144.299 146.665-144.299zM839.769-76.534c0-41.99-33.71-75.699-75.699-75.699h-499.13c-41.99 0-75.699 33.71-75.699 75.699v321.714c0 41.99 33.71 75.699 75.699 75.699h499.13c41.99 0 75.699-33.71 75.699-75.699v-321.714zM502.678-63.523c19.516 0 35.485 15.97 35.485 35.485v112.363c0 19.516-15.97 35.485-35.485 35.485s-35.485-15.97-35.485-35.485v-112.363c0-19.516 15.97-35.485 35.485-35.485z" />
<glyph unicode="&#xe91a;" glyph-name="note" data-tags="note" d="M820.594 370.851c-8.34 0-15.104-6.764-15.104-15.104v-499.405c0-27.204-22.135-49.336-49.336-49.336h-676.612c-27.204 0-49.336 22.135-49.336 49.336v676.612c0 27.204 22.135 49.336 49.336 49.336h499.405c8.34 0 15.104 6.764 15.104 15.104s-6.764 15.104-15.104 15.104h-499.405c-43.86 0-79.543-35.684-79.543-79.543v-676.612c0-43.86 35.684-79.543 79.543-79.543h676.612c43.86 0 79.543 35.684 79.543 79.543v499.405c0 8.34-6.764 15.104-15.104 15.104zM1010.437 718.889l-68.349 68.349c-11.983 11.983-27.909 18.578-44.855 18.578s-32.872-6.595-44.853-18.578l-464.26-464.258c-1.731-1.731-3.015-3.855-3.743-6.19l-52.657-169.186c-3.456-11.111-0.493-23.121 7.733-31.349 5.958-5.956 13.895-9.151 22.035-9.151 3.105 0 6.242 0.463 9.311 1.418l169.186 52.657c2.335 0.728 4.459 2.012 6.19 3.743l464.26 464.256c11.983 11.983 18.578 27.909 18.578 44.853 0 16.946-6.595 32.874-18.578 44.857zM452.241 165.504l-63.537 63.537 20.911 67.19 109.812-109.812-67.188-20.913zM361.824 137.363c-0.244-0.076-0.582-0.18-1.011 0.248s-0.325 0.766-0.248 1.011l18.005 57.838 41.098-41.098-57.838-18.005zM989.076 650.541l-445.525-445.527-115.338 115.338 445.527 445.525c6.276 6.274 14.618 9.731 23.495 9.731s17.22-3.454 23.495-9.731l68.349-68.349c6.274-6.276 9.731-14.618 9.731-23.495s-3.454-17.22-9.731-23.495z" />
<glyph unicode="&#xe91b;" glyph-name="note-outlined-symbol" data-tags="note-outlined-symbol" d="M260.791 224.808l-138.276-279.956c-11.607-31.514 13.601-59.746 45.117-45.115l279.762 138.371c12.060 2.346 23.764 7.011 33.089 16.367l496.949 497.304c24.952 24.952 24.952 65.439 0 90.423l-112.934 113.031c-24.952 24.952-65.408 24.952-90.36 0l-496.983-497.304c-9.325-9.356-14.021-21.064-16.367-33.12zM796.715 687.415c12.477 12.477 32.704 12.477 45.181 0l67.753-67.817c12.477-12.475 12.477-32.736 0-45.212l-67.753-67.817-111.327 114.639 66.146 66.21zM682.976 573.579l113.739-112.227-361.442-361.665c-42.35 42.381-100.938 101.003-112.934 113.031l360.637 360.861zM378.999 65.601l-172.745-104.637c-15.756-7.3-29.874 7.814-22.543 22.574l104.573 172.872 90.715-90.811zM964.7 419.936v-514.506c0-35.306-34.922-64.698-70.197-64.698h-766.712c-35.274 0-63.893 28.62-63.893 63.927v767.225c0 35.307 29.458 69.621 64.732 69.621h514.506v64.315h-514.506c-70.586 0-128.628-63.318-128.628-133.934v-767.226c0-70.616 57.207-127.855 127.791-127.855h766.712c70.584 0 134.511 58.012 134.511 128.626v514.506h-64.315z" />
<glyph unicode="&#xe91c;" glyph-name="font-selection-editor" data-tags="font-selection-editor" d="M800.61 177.691c-7.695 3.071-14.431 1.725-20.196-4.037l-36.919-36.919c-3.455-3.449-5.198-7.689-5.198-12.678v-72.687c0-25.386-9.018-47.102-27.086-65.183-18.088-18.074-39.803-27.106-65.183-27.106h-479.91c-25.38 0-47.108 9.038-65.183 27.106-18.078 18.082-27.106 39.797-27.106 65.183v479.898c0 25.382 9.034 47.108 27.106 65.185 18.078 18.074 39.805 27.106 65.183 27.106h479.914c8.456 0 17.114-1.153 25.953-3.461 6.937-2.304 13.077-0.771 18.453 4.614l28.257 28.265c4.619 4.606 6.339 10.189 5.192 16.723-1.153 6.15-4.619 10.573-10.386 13.264-20.767 9.599-43.258 14.423-67.485 14.423h-479.9c-45.758 0-84.888-16.248-117.383-48.742-32.488-32.5-48.733-71.621-48.733-117.381v-479.908c0-45.756 16.248-84.882 48.735-117.375 32.496-32.504 71.629-48.75 117.383-48.75h479.9c45.756 0 84.882 16.248 117.375 48.75 32.504 32.496 48.75 71.621 48.75 117.375v109.592c-0.002 8.090-3.856 13.658-11.533 16.743zM369.15 199.011v-166.111h166.128l387.614 387.612-166.126 166.119-387.616-387.621zM512.194 88.267v0l-32.304 0.014v55.358h-55.368v32.292l66.911 66.911 87.673-87.681-66.911-66.895zM765.412 484.543l-201.891-201.885c-6.532-6.546-12.884-6.738-19.035-0.584-6.148 6.154-5.961 12.497 0.582 19.031l201.891 201.887c6.53 6.542 12.868 6.736 19.035 0.582s5.947-12.495-0.582-19.031zM1012.867 588.94l-87.673 87.673c-10.764 10.768-23.83 16.154-39.219 16.154-15.385 0-28.459-5.383-39.215-16.154l-53.073-53.061 166.126-166.128 53.059 53.071c10.764 10.761 16.146 23.838 16.146 39.221s-5.381 28.455-16.148 39.221z" />
<glyph unicode="&#xe91d;" glyph-name="phone-call" data-tags="phone-call" d="M813.246 168.378c-21.068 21.933-46.475 33.664-73.407 33.664-26.713 0-52.34-11.509-74.275-33.448l-68.63-68.413c-5.647 3.041-11.293 5.865-16.721 8.685-7.82 3.91-15.204 7.599-21.501 11.509-64.287 40.831-122.707 94.040-178.74 162.886-27.146 34.313-45.39 63.201-58.638 92.518 17.807 16.289 34.313 33.227 50.385 49.516 6.081 6.081 12.163 12.379 18.244 18.46 45.607 45.607 45.607 104.681 0 150.289l-59.291 59.291c-6.735 6.735-13.681 13.681-20.199 20.632-13.032 13.465-26.713 27.366-40.831 40.394-21.068 20.848-46.259 31.925-72.756 31.925s-52.124-11.077-73.842-31.925c-0.216-0.216-0.216-0.216-0.432-0.432l-73.842-74.494c-27.799-27.799-43.655-61.679-47.129-100.989-5.212-63.418 13.465-122.49 27.799-161.148 35.182-94.908 87.741-182.866 166.143-277.123 95.127-113.586 209.579-203.281 340.322-266.48 49.953-23.672 116.627-51.687 191.119-56.467 4.559-0.216 9.338-0.432 13.681-0.432 50.169 0 92.302 18.028 125.313 53.86 0.216 0.432 0.653 0.653 0.869 1.086 11.293 13.681 24.326 26.060 38.006 39.308 9.338 8.906 18.893 18.244 28.234 28.015 21.501 22.371 32.794 48.43 32.794 75.143 0 26.929-11.509 52.774-33.448 74.494l-119.231 119.667zM890.996-60.313c-0.216 0-0.216-0.216 0 0-8.469-9.122-17.159-17.375-26.497-26.497-14.118-13.465-28.452-27.583-41.917-43.434-21.933-23.456-47.781-34.533-81.661-34.533-3.257 0-6.735 0-9.992 0.216-64.503 4.126-124.444 29.321-169.4 50.821-122.925 59.507-230.863 143.99-320.558 251.060-74.058 89.261-123.576 171.79-156.37 260.4-20.199 54.079-27.583 96.212-24.326 135.956 2.171 25.411 11.947 46.475 29.97 64.503l74.058 74.058c10.64 9.992 21.933 15.42 33.011 15.42 13.681 0 24.758-8.253 31.709-15.204 0.216-0.216 0.432-0.432 0.653-0.653 13.248-12.379 25.844-25.195 39.092-38.876 6.735-6.951 13.681-13.902 20.632-21.068l59.291-59.291c23.019-23.019 23.019-44.304 0-67.327-6.298-6.298-12.379-12.595-18.677-18.677-18.244-18.677-35.619-36.051-54.512-52.994-0.432-0.432-0.869-0.653-1.086-1.086-18.677-18.677-15.204-36.921-11.293-49.3 0.216-0.653 0.432-1.302 0.653-1.955 15.42-37.353 37.137-72.54 70.148-114.454l0.216-0.216c59.941-73.842 123.141-131.394 192.857-175.482 8.906-5.647 18.028-10.208 26.713-14.55 7.82-3.91 15.204-7.599 21.501-11.509 0.869-0.432 1.739-1.086 2.608-1.518 7.383-3.694 14.334-5.428 21.501-5.428 18.028 0 29.321 11.293 33.011 14.987l74.275 74.275c7.383 7.383 19.114 16.289 32.794 16.289 13.465 0 24.542-8.469 31.274-15.852 0.216-0.216 0.216-0.216 0.432-0.432l119.667-119.667c22.371-22.154 22.371-44.957 0.216-67.976zM556.104 561.039c56.901-9.554 108.591-36.488 149.854-77.752s67.976-92.954 77.752-149.854c2.387-14.334 14.766-24.326 28.884-24.326 1.739 0 3.257 0.216 4.996 0.432 16.073 2.608 26.713 17.807 24.107 33.88-11.726 68.846-44.304 131.611-94.040 181.346s-112.5 82.31-181.346 94.040c-16.073 2.608-31.055-8.037-33.88-23.888s7.599-31.274 23.672-33.88zM1027.821 351.896c-19.33 113.368-72.756 216.529-154.85 298.623s-185.255 135.52-298.623 154.85c-15.852 2.825-30.839-8.037-33.664-23.888-2.608-16.073 8.037-31.055 24.107-33.88 101.207-17.159 193.508-65.155 266.915-138.345 73.407-73.407 121.186-165.709 138.345-266.915 2.387-14.334 14.766-24.326 28.884-24.326 1.739 0 3.257 0.216 4.996 0.432 15.852 2.387 26.713 17.591 23.888 33.448z" />
<glyph unicode="&#xe91e;" glyph-name="placeholder" data-tags="placeholder" d="M514.506-223.199c-8.085 0-15.802 3.312-21.404 9.178-15.472 16.466-379.428 404.675-379.428 619.005 0 221.024 179.807 400.831 400.831 400.831 220.991 0 400.831-179.807 400.831-400.831 0-214.365-363.922-602.572-379.428-619.005-5.564-5.866-13.319-9.178-21.404-9.178zM514.506 747.040c-188.587 0-342.022-153.435-342.022-342.022 0-148.398 229.704-431.876 342.022-555.525 112.351 123.682 342.022 407.093 342.022 555.525 0.033 188.587-153.435 342.022-342.022 342.022zM514.506 279.546c-93.498 0-169.536 76.037-169.536 169.536 0 93.465 76.037 169.536 169.536 169.536 93.465 0 169.536-76.070 169.536-169.536 0-93.498-76.037-169.536-169.536-169.536zM514.506 559.811c-61.096 0-110.761-49.663-110.761-110.728 0-61.096 49.663-110.761 110.761-110.761 61.063 0 110.728 49.663 110.728 110.761 0 61.063-49.663 110.728-110.728 110.728z" />
<glyph unicode="&#xe91f;" glyph-name="big-speech-balloon" data-tags="big-speech-balloon" d="M899.615 805.816h-770.212c-68.973 0-125.091-56.118-125.091-125.095v-505.243c0-68.975 56.118-125.095 125.095-125.095h421.801v-243.054c0-12.743 7.921-24.148 19.857-28.603 3.479-1.297 7.088-1.924 10.656-1.924 8.685 0 17.167 3.713 23.080 10.538l227.863 263.041h66.944c68.975 0 125.093 56.118 125.093 125.095v505.243c0.003 68.976-56.115 125.095-125.090 125.095zM963.654 175.475c0-35.309-28.727-64.042-64.040-64.042 0 0-78.979-0.020-79.442 0-9.023 0.42-18.147-3.179-24.52-10.538l-183.392-211.71v191.719c0 16.856-13.666 30.527-30.527 30.527h-452.332c-35.311 0-64.042 28.732-64.042 64.042v505.248c0.003 35.309 28.73 64.042 64.042 64.042h770.209c35.311 0 64.040-28.732 64.040-64.042v-505.243h0.003zM856.318 604.468h-683.618c-16.856 0-30.527-13.666-30.527-30.527s13.666-30.527 30.527-30.527h683.618c16.856 0 30.527 13.666 30.527 30.527s-13.663 30.527-30.527 30.527zM856.318 458.626h-683.618c-16.856 0-30.527-13.666-30.527-30.527s13.666-30.527 30.527-30.527h683.618c16.856 0 30.527 13.666 30.527 30.527s-13.663 30.527-30.527 30.527zM496.28 312.789h-323.578c-16.856 0-30.527-13.666-30.527-30.527s13.666-30.527 30.527-30.527h323.581c16.856 0 30.527 13.666 30.527 30.527-0.003 16.854-13.666 30.527-30.53 30.527z" />
<glyph unicode="&#xe920;" glyph-name="speech-bubble" data-tags="speech-bubble" d="M879.91 744.489h-730.806c-82.125 0-149.104-66.766-149.104-149.104v-446.035c0-82.125 66.766-149.104 149.104-149.104h65.487v-133.32c0-10.881 6.186-20.69 15.783-25.598 4.053-2.133 8.531-3.199 13.014-3.199 5.974 0 11.947 1.92 17.067 5.544l214.805 156.571h404.652c82.125 0 149.104 66.766 149.104 149.104v446.035c0 82.337-66.978 149.104-149.104 149.104zM971.422 149.563c0-50.341-40.956-91.51-91.51-91.51h-414.038c-6.186 0-11.947-1.92-17.067-5.544l-176.621-128.84v105.59c0 7.677-2.987 14.934-8.531 20.266s-12.796 8.531-20.266 8.531h-94.284c-50.341 0-91.51 40.956-91.51 91.51v445.821c0 50.341 40.956 91.51 91.51 91.51h730.806c50.341 0 91.51-40.956 91.51-91.51v-445.821zM768.987 549.947h-508.962c-16 0-28.797-12.796-28.797-28.797s12.796-28.797 28.797-28.797h508.962c16 0 28.797 12.796 28.797 28.797s-12.796 28.797-28.797 28.797zM768.987 410.443h-508.962c-16 0-28.797-12.796-28.797-28.797s12.796-28.797 28.797-28.797h508.962c16 0 28.797 12.796 28.797 28.797s-12.796 28.797-28.797 28.797zM768.987 270.938h-508.962c-16 0-28.797-12.796-28.797-28.797s12.796-28.797 28.797-28.797h508.962c16 0 28.797 12.796 28.797 28.797s-12.796 28.797-28.797 28.797z" />
<glyph unicode="&#xe921;" glyph-name="black-user-shape" data-tags="black-user-shape" d="M513.284 196.789c-143.198 0-259.218 139.087-259.218 310.532 0 171.427 116.020 298.494 259.218 298.494 143.22 0 259.337-127.069 259.337-298.494 0-171.445-116.12-310.532-259.337-310.532zM110.059-223.006c0 0-54.985-3.632-79.201 29.742-13.087 18.030-3.971 54.56 4.979 74.946l21.915 49.947c0 0 60.611 135.557 129.607 214.11 42.382 48.17 92.792 37.199 125.395 21.535 20.083-9.636 42.789-37.725 59.381-52.606 22.864-20.508 63.234-43.816 129.226-45.127h40.489c65.951 1.311 106.32 24.619 129.167 45.127 16.574 14.881 38.655 43.838 58.553 53.792 29.923 14.982 75.469 24.198 116.745-22.724 69.017-78.557 123.68-216.572 123.68-216.572l22.462-48.979c9.293-20.246 18.812-56.595 6.091-74.865-22.702-32.664-73.676-28.332-73.676-28.332s-814.812 0.004-814.812 0.004z" />
<glyph unicode="&#xe922;" glyph-name="fullscreen" data-tags="fullscreen" d="M929.359-53.382l-215.536 215.536-70.159-70.159 215.536-215.536h-167.499v-99.656h337.315v337.315h-99.656zM713.82 420.251l215.536 215.747v-167.499h99.656v337.315h-337.315v-99.656h167.499l-215.536-215.536zM315.195 162.155l-215.536-215.536v167.499h-99.656v-337.315h337.315v99.656h-167.499l215.747 215.536zM337.315 706.16v99.656h-337.315v-337.315h99.656v167.499l215.536-215.747 70.372 70.372-215.747 215.536z" />
<glyph unicode="&#xe923;" glyph-name="icon1" data-tags="icon (1)" d="M43.493 620.604l131.582 130.196c58.242 57.338 152.815 57.724 211.185 0.647l146.006-142.426c58.467-57.048 58.724-149.974 0.647-207.281l-83.44 80.15c8.453 25.524-1.969 54.755-22.619 74.987l-92.896 90.571c-29.429 28.557-76.635 28.428-105.673-0.321l-79.021-78.085c-29.038-28.749-28.91-75.051 0.321-103.672l92.896-90.636c19.65-19.168 51.919-29.686 76.956-22.94l81.733-80.214c-58.178-57.467-152.687-57.724-211.185-0.647l-145.844 142.296c-58.628 57.146-58.82 149.974-0.647 207.378zM578.089 99.37c-6.939-24.941 4.162-57.21 24.266-76.827l86.765-84.765c29.75-29.038 77.892-28.878 107.513 0.385l80.602 79.407c29.557 29.233 29.365 76.763-0.385 105.673l-86.83 84.765c-21.169 20.554-51.561 31.007-78.085 22.233l-83.7 82.926c59.243 58.435 155.655 58.724 215.153 0.647l140.778-137.456c59.564-58.178 59.853-152.751 0.647-211.314l-134.036-132.518c-59.179-58.371-155.525-58.66-215.153-0.583l-140.778 137.456c-59.5 58.242-59.757 152.751-0.647 211.249l83.894-81.279zM669.597 137.188c-19.714-19.906-51.983-20.104-72.082-0.257l-240.547 239.289c-20.039 19.906-20.168 52.112-0.257 72.082 19.778 19.842 51.983 19.972 71.954 0.193l240.613-239.225c20.005-19.842 20.136-52.047 0.321-72.082z" />
<glyph unicode="&#xe924;" glyph-name="icon12" data-tags="icon (1)" d="M985.52 620.604l-131.582 130.196c-58.242 57.338-152.815 57.724-211.185 0.647l-146.006-142.426c-58.467-57.048-58.724-149.974-0.647-207.281l83.44 80.15c-8.453 25.524 1.969 54.755 22.619 74.987l92.896 90.571c29.429 28.557 76.635 28.428 105.673-0.321l79.021-78.085c29.038-28.749 28.91-75.051-0.321-103.672l-92.896-90.636c-19.65-19.168-51.919-29.686-76.956-22.94l-81.733-80.214c58.178-57.467 152.687-57.724 211.185-0.647l145.844 142.296c58.628 57.146 58.82 149.974 0.647 207.378zM450.925 99.37c6.939-24.941-4.162-57.21-24.266-76.827l-86.765-84.765c-29.75-29.038-77.892-28.878-107.513 0.385l-80.602 79.407c-29.557 29.233-29.365 76.763 0.385 105.673l86.83 84.765c21.169 20.554 51.561 31.007 78.085 22.233l83.7 82.926c-59.243 58.435-155.655 58.724-215.153 0.647l-140.778-137.456c-59.564-58.178-59.853-152.751-0.647-211.314l134.036-132.518c59.179-58.371 155.525-58.66 215.153-0.583l140.778 137.456c59.5 58.242 59.757 152.751 0.647 211.249l-83.894-81.279zM359.418 137.188c19.714-19.906 51.983-20.104 72.082-0.257l240.547 239.289c20.039 19.906 20.168 52.112 0.257 72.082-19.778 19.842-51.983 19.972-71.954 0.193l-240.613-239.225c-20.005-19.842-20.136-52.047-0.321-72.082z" />
<glyph unicode="&#xe925;" glyph-name="quotations" data-tags="quotations" d="M308.559-110.411l-29.855-21.145-1.024-0.771-1.924-0.771-21.783-10.377 0.643 1.534c-20.63-8.457-42.284-14.478-65.862-14.478-104.307 0-188.752 87.776-188.752 196.053s84.57 196.053 188.752 196.053c33.446 0 64.329-9.735 91.617-25.626-9.353 104.817-62.151 257.691-255.639 413.637-27.035 21.783-32.035 62.276-11.020 90.34 12.301 16.53 30.626 24.987 49.080 24.987 13.325 0 26.654-4.481 38.055-13.453 237.443-191.699 296.772-388.518 304.718-519.99 13.582-168.122-37.415-256.539-84.059-302.666l-12.948-13.333zM942.469-97.086l-13.072-13.325-29.73-21.145-1.024-0.771-2.052-0.771-21.783-10.377 0.643 1.534c-20.63-8.457-42.413-14.478-65.991-14.478-104.177 0-188.494 87.776-188.494 196.053s84.316 196.053 188.752 196.053c33.446 0 64.329-9.735 91.617-25.626-9.225 104.817-62.021 257.691-255.511 413.637-27.166 21.783-32.035 62.276-11.020 90.34 12.301 16.53 30.626 24.987 49.080 24.987 13.325 0 26.654-4.481 38.055-13.453 237.573-191.699 296.772-388.518 304.847-519.99 13.582-168.126-37.415-256.543-84.316-302.674z" />
<glyph unicode="&#xe926;" glyph-name="quotations2" data-tags="quotations" d="M720.456-110.411l29.855-21.145 1.024-0.771 1.924-0.771 21.783-10.377-0.643 1.534c20.63-8.457 42.284-14.478 65.862-14.478 104.307 0 188.752 87.776 188.752 196.053s-84.57 196.053-188.752 196.053c-33.446 0-64.329-9.735-91.617-25.626 9.353 104.817 62.151 257.691 255.639 413.637 27.035 21.783 32.035 62.276 11.020 90.34-12.301 16.53-30.626 24.987-49.080 24.987-13.325 0-26.654-4.481-38.055-13.453-237.443-191.699-296.772-388.518-304.718-519.99-13.582-168.122 37.415-256.539 84.059-302.666l12.948-13.333zM86.545-97.086l13.072-13.325 29.73-21.145 1.024-0.771 2.052-0.771 21.783-10.377-0.643 1.534c20.63-8.457 42.413-14.478 65.991-14.478 104.177 0 188.494 87.776 188.494 196.053s-84.316 196.053-188.752 196.053c-33.446 0-64.329-9.735-91.617-25.626 9.225 104.817 62.021 257.691 255.511 413.637 27.166 21.783 32.035 62.276 11.020 90.34-12.301 16.53-30.626 24.987-49.080 24.987-13.325 0-26.654-4.481-38.055-13.453-237.573-191.699-296.772-388.518-304.847-519.99-13.582-168.126 37.415-256.543 84.316-302.674z" />
<glyph unicode="&#xe927;" glyph-name="linkedin-logo" data-tags="linkedin-logo" d="M1029.015 180.099v-380.433h-220.551v354.954c0 89.168-31.9 150.021-111.733 150.021-60.941 0-97.21-41.011-113.163-80.682-5.82-14.183-7.315-33.922-7.315-53.773v-370.519h-220.625c0 0 2.972 601.176 0 663.462h220.604v-94.044c-0.445-0.705-1.029-1.46-1.448-2.143h1.448v2.143c29.312 45.142 81.654 109.63 198.814 109.63 145.154 0.002 253.971-94.825 253.971-298.615zM124.844 782.95c-75.476 0-124.844-49.505-124.844-114.609 0-63.683 47.94-114.693 121.916-114.693h1.472c76.937 0 124.786 51 124.786 114.693-1.448 65.102-47.85 114.609-123.33 114.609zM13.104-200.334h220.542v663.462h-220.542v-663.462z" />
<glyph unicode="&#xe928;" glyph-name="google-plus-logo" data-tags="google-plus-logo" d="M665.453 805.816h-245.407c-109.356 0-185.054-23.973-253.186-80.257-53.582-46.229-85.56-113.415-85.56-179.73 0-102.171 77.899-210.751 222.25-210.751 13.882 0 29.247 1.422 42.808 2.691l-1.998-4.858c-5.804-13.903-11.297-27.013-11.297-47.482 0-39.853 19.226-64.435 37.813-88.186l2.337-3.008-4.155-0.286c-59.608-4.081-170.558-11.688-251.602-61.501-95.719-56.909-103.16-139.696-103.16-163.704 0-95.518 89.016-191.93 287.895-191.93 231.251 0 352.255 127.581 352.255 253.601 0.021 93.213-54.634 139.229-112.651 188.082l-48.94 38.067c-15.124 12.529-33.954 28.118-33.954 57.006 0 28.398 18.83 47.143 35.454 63.679l1.734 1.755c52.85 41.628 112.746 88.824 112.746 190.909 0 102.639-64.137 155.68-94.977 181.175h81.437c0.999 0 1.998 0.275 2.828 0.819l70.15 44.104c1.998 1.263 2.934 3.7 2.273 5.973-0.629 2.273-2.733 3.838-5.091 3.838zM367.856-166.959c-140.961 0-235.672 65.836-235.672 163.832 0 63.985 38.738 110.483 115.030 138.124 61.097 20.564 139.962 21.584 140.748 21.584 13.358 0 20.077 0 30.745-1.338 98.632-70.193 146.051-107.049 146.051-177.243-0.011-89.418-75.465-144.957-196.904-144.957zM366.528 372.688c-118.303 0-167.401 155.51-167.401 238.775 0 42.338 9.626 74.838 29.439 99.377 21.499 26.897 58.313 44.273 93.785 44.273 108.623 0 168.688-145.998 168.688-246.905 0-15.921 0-64.35-33.457-97.985-22.498-22.456-59.089-37.538-91.056-37.538zM1009.408 325.215h-129.313v128.857c0 2.934-2.39 5.313-5.313 5.313h-55.622c-2.934 0-5.313-2.379-5.313-5.313v-128.857h-128.665c-2.934 0-5.313-2.379-5.313-5.313v-56.368c0-2.923 2.379-5.313 5.313-5.313h128.665v-129.686c0-2.923 2.379-5.313 5.313-5.313h55.622c2.923 0 5.313 2.39 5.313 5.313v129.707h129.313c2.934 0 5.313 2.368 5.313 5.313v56.347c0 2.944-2.368 5.313-5.313 5.313z" />
<glyph unicode="&#xe929;" glyph-name="twitter" data-tags="twitter" d="M1029.015 610.441c-37.865-16.788-78.547-28.137-121.25-33.24 43.584 26.126 77.059 67.5 92.824 116.8-40.798-24.198-85.974-41.765-134.063-51.23-38.508 41.030-93.377 66.665-154.097 66.665-116.591 0-211.112-94.518-211.112-211.106 0-16.546 1.868-32.66 5.465-48.113-175.454 8.809-331.014 92.852-435.137 220.58-18.174-31.178-28.586-67.446-28.586-106.135 0-73.244 37.268-137.862 93.918-175.721-34.608 1.097-67.159 10.592-95.619 26.408-0.020-0.881-0.020-1.766-0.020-2.657 0-102.287 72.773-187.609 169.346-207.008-17.711-4.823-36.364-7.409-55.618-7.409-13.603 0-26.828 1.325-39.723 3.796 26.866-83.87 104.83-144.913 197.212-146.612-72.251-56.627-163.28-90.374-262.193-90.374-17.043 0-33.845 0.997-50.361 2.957 93.427-59.905 204.397-94.856 323.618-94.856 388.312 0 600.661 321.691 600.661 600.669 0 9.153-0.208 18.258-0.615 27.315 41.252 29.763 77.045 66.943 105.348 109.279z" />
<glyph unicode="&#xe92a;" glyph-name="facebook" data-tags="facebook" d="M595.494-223.199h-192.812v514.506h-128.626v177.314l128.626 0.058-0.208 104.462c0 144.657 39.224 232.674 209.622 232.674h141.867v-177.349h-88.661c-66.357 0-69.548-24.776-69.548-71.029l-0.262-88.757h159.469l-18.798-177.314-140.537-0.058-0.128-514.506z" />
<glyph unicode="&#xe92b;" glyph-name="skype-logo" data-tags="skype-logo" d="M990.055 208.669c-3.411 5.766-4.075 11.099-3.246 17.36 11.396 82.324 2.021 162.264-28.459 239.521-81.033 206.028-290.142 327.313-512.007 297.563-4.075-0.532-8.979 0.763-12.621 2.751-97.996 53.14-196.521 54.134-292.76-2.219-136.326-79.808-180.585-255.125-101.441-392.080 2.12-3.745 2.949-8.913 2.652-13.318-1.559-22.396-3.778-44.759-5.7-67.118 1.225-39.888 5.931-79.144 15.702-117.707 59.433-234.917 287.127-388.204 527.311-354.91 6.228 0.829 11.692 0.066 17.36-3.279 57.511-32.798 119.33-44.759 184.792-35.28 201.125 28.855 309.954 252.773 208.414 428.72zM729.993 59.689c-29.253-32.166-65.694-51.746-106.642-64.071-35.681-10.698-72.387-14.081-109.525-14.411-48.203 0.664-95.642 5.898-140.235 25.774-49.726 22.165-86.267 57.808-107.304 108.465-6.327 15.207-9.94 31.307-8.183 47.773 2.417 22.956 15.438 38.63 36.906 46.247 22.429 7.919 44.457 6.294 61.718-11.561 8.748-8.979 14.806-20.771 21.171-31.837 6.525-11.363 11.429-23.588 17.887-34.984 17.558-30.942 44.557-48.532 79.376-54.167 35.115-5.733 69.868-4.339 103.561 8.381 15.471 5.799 29.253 14.477 40.717 26.405 28.953 30.212 25.543 75.234-7.552 100.678-15.405 11.758-32.93 19.017-51.514 23.687-39.388 9.907-79.177 18.618-118.336 29.321-23.621 6.393-47.11 14.477-69.703 24.049-16.3 6.958-31.87 16.465-46.247 26.965-75.468 55.128-72.021 167.267-8.979 223.719 27.696 24.747 60.063 40.053 95.741 48.301 71.093 16.564 142.156 17.821 212.29-5.234 32.3-10.633 60.757-27.729 84.081-52.773 19.15-20.54 31.936-44.193 33.825-72.718 1.625-22.956-8.216-40.783-26.867-53.239-18.684-12.654-39.355-12.752-59.664-3.877-5.399 2.351-10.336 6.892-14.18 11.594-7.057 8.979-14.51 18.156-19.414 28.393-25.543 53.041-68.512 73.647-125.624 69.769-20.144-1.39-40.382-2.982-58.505-12.423-10.934-5.733-21.863-12.785-30.546-21.567-20.441-20.836-18.618-50.954 3.18-70.5 14.839-13.351 32.699-21.534 51.679-26.57 36.408-9.739 73.448-17.327 109.657-27.597 32.831-9.309 65.098-20.968 97.498-31.738 3.477-1.159 6.727-3.213 10.171-4.838 118.568-54.76 106.774-192.479 49.559-255.423z" />
<glyph unicode="&#xe92c;" glyph-name="close-envelope" data-tags="close-envelope" d="M514.506 144.306l-127.303 111.428-363.976-312.012c13.231-12.275 31.089-19.917 50.79-19.917h880.983c19.624 0 37.411 7.642 50.567 19.917l-363.757 312.012-127.303-111.428zM1005.787 638.895c-13.231 12.348-31.016 19.917-50.79 19.917h-880.983c-19.624 0-37.411-7.642-50.64-20.068l491.135-420.94 491.281 421.087zM0 594.282v-610.647l355.231 301.87zM673.784 285.502l355.231-301.87v610.867z" />
<glyph unicode="&#xe92d;" glyph-name="icon" data-tags="icon" d="M730.982 805.816h-432.95c-41.433 0-74.883-33.599-74.883-74.958v-879.174c0-41.321 33.45-74.883 74.883-74.883h432.95c41.359 0 74.883 33.562 74.883 74.883v879.174c0 41.359-33.525 74.958-74.883 74.958zM407.676 760.294h213.738c5.398 0 9.789-8.063 9.789-18.039s-4.386-18.076-9.789-18.076h-213.738c-5.436 0-9.75 8.1-9.75 18.076s4.311 18.039 9.75 18.039zM514.545-149.215c-26.362 0-47.812 21.449-47.812 47.849s21.449 47.773 47.812 47.773c26.288 0 47.735-21.375 47.735-47.773s-21.449-47.849-47.735-47.849zM749.768 14.613h-470.485v664.724h470.485v-664.724z" />
<glyph unicode="&#xe92e;" glyph-name="location-pin" data-tags="location-pin" d="M514.508 805.816c-187.683 0-340.372-152.692-340.372-340.37 0-75.593 48.27-198.831 147.562-376.763 70.234-125.849 139.314-230.782 142.215-235.187l50.595-76.695 50.593 76.693c2.905 4.405 71.987 109.339 142.213 235.187 99.296 177.934 147.562 301.172 147.562 376.763 0.002 187.683-152.69 340.372-340.368 340.372zM514.508 291.309c-97.441 0-176.435 78.992-176.435 176.435s78.994 176.435 176.435 176.435c97.441 0 176.435-78.992 176.435-176.435s-78.996-176.435-176.435-176.435z" />
<glyph unicode="&#xe92f;" glyph-name="play-button" data-tags="play-button" d="M972.071 526.802c-36.031 69.881-88.577 131.588-151.949 178.453-9.301 6.877-22.41 4.912-29.29-4.386s-4.912-22.41 4.386-29.29c58.24-43.067 106.52-99.765 139.629-163.974 34.692-67.279 52.281-140.048 52.281-216.299 0-260.605-212.020-472.626-472.626-472.626s-472.626 212.020-472.626 472.629 212.020 472.626 472.626 472.626c11.561 0 20.938 9.377 20.938 20.938s-9.377 20.938-20.938 20.938c-283.699 0-514.504-230.807-514.504-514.504s230.807-514.504 514.504-514.504 514.504 230.807 514.504 514.504c0 81.822-19.686 163.25-56.94 235.491zM382.854 530.21c-6.545-3.726-10.591-10.674-10.591-18.205v-459.547c0-11.565 9.377-20.938 20.938-20.938s20.938 9.374 20.938 20.938v422.711l310.031-184.564-227.984-146.885c-9.717-6.264-12.525-19.224-6.261-28.942 6.268-9.721 19.224-12.528 28.945-6.261l256.396 165.194c6.094 3.927 9.721 10.723 9.592 17.975s-3.997 13.917-10.226 17.624l-370.727 220.693c-6.476 3.851-14.511 3.934-21.060 0.208z" />
<glyph unicode="&#xe930;" glyph-name="pdf" data-tags="pdf" d="M903.936 589.598l-206.459 206.459c-6.192 6.192-14.777 9.759-23.561 9.759h-514.897c-21.042 0-43.7-16.252-43.7-51.913v-941.621c0-14.847 14.941-29.329 32.61-33.886 0.888-0.23 1.74-0.57 2.663-0.747 2.769-0.552 5.586-0.852 8.426-0.852h710.978c2.84 0 5.662 0.3 8.426 0.852 0.923 0.177 1.776 0.517 2.663 0.747 17.67 4.557 32.61 19.039 32.61 33.886v745.539c0 13.607-1.634 23.649-9.759 31.775zM850.446 592.915h-149.651v149.651l149.651-149.651zM159.018-187.716c-1.259 0-2.393 0.459-3.511 0.87-2.769 1.311-4.704 4.081-4.704 7.344v257.91h727.407v-257.91c0-3.264-1.934-6.015-4.704-7.344-1.117-0.406-2.252-0.87-3.511-0.87h-710.978zM150.804 113.891v640.012c0 3.851 0.588 16.429 8.214 16.429h507.321c-0.588-2.235-1.029-4.54-1.029-6.938v-205.963h205.963c2.393 0 4.686 0.441 6.921 1.029 0-0.265 0.018-0.371 0.018-0.641v-443.932h-727.407zM391.061 11.985c-5.909 4.845-12.578 8.497-20.013 10.913-7.433 2.429-14.958 3.639-22.55 3.639h-51.415v-178.765h29.112v64.527h21.591c9.367 0 17.954 1.364 25.707 4.116s14.388 6.633 19.886 11.637c5.498 5.004 9.778 11.195 12.865 18.557 3.069 7.362 4.611 15.559 4.611 24.625 0 8.567-1.828 16.287-5.463 23.173s-8.426 12.719-14.335 17.581zM380.026-47.077c-1.793-4.933-4.116-8.767-7.026-11.513s-6.103-4.739-9.579-5.944c-3.475-1.206-7.009-1.828-10.555-1.828h-26.683v70.824h21.821c7.433 0 13.412-1.17 17.954-3.511 4.522-2.34 8.038-5.251 10.555-8.729 2.499-3.475 4.151-7.115 4.968-10.913 0.799-3.798 1.206-7.15 1.206-10.060 0-7.291-0.888-13.395-2.663-18.328zM566.916 0.346c-7.521 7.914-16.981 14.282-28.388 19.039s-24.625 7.15-39.654 7.15h-53.845v-178.765h67.667c2.252 0 5.733 0.282 10.431 0.852 4.686 0.57 9.866 1.846 15.523 3.886 5.662 2.023 11.513 5.057 17.581 9.102s11.513 9.579 16.376 16.623 8.855 15.77 12.013 26.206 4.739 23.009 4.739 37.72c0 10.678-1.864 21.079-5.569 31.17-3.745 10.078-9.349 19.092-16.87 27.019zM545.697-111.958c-8.729-12.613-22.956-18.91-42.688-18.91h-28.865v135.351h16.981c13.912 0 25.231-1.828 33.957-5.463s15.647-8.409 20.739-14.318 8.514-12.489 10.308-19.763c1.776-7.274 2.663-14.636 2.663-22.071 0-23.932-4.363-42.224-13.095-54.82zM631.567-152.232h29.594v80.529h74.711v19.886h-74.711v56.277h82.214v22.071h-111.808zM681.775 398.451c-16.305 0-36.315-2.129-59.576-6.351-32.469 34.456-66.355 84.77-90.27 134.163 23.72 99.867 11.854 114.007 6.615 120.679-5.569 7.097-13.43 18.61-22.373 18.61-3.745 0-13.965-1.705-18.028-3.052-10.219-3.405-15.717-11.284-20.121-21.556-12.542-29.329 4.668-79.321 22.373-117.858-15.135-60.199-40.521-132.247-67.206-190.723-67.241-30.799-102.954-61.049-106.183-89.915-1.17-10.502 1.311-25.919 19.781-39.778 5.057-3.781 10.984-5.786 17.158-5.786v0c15.523 0 31.205 11.889 49.357 37.38 13.236 18.593 27.448 43.947 42.277 75.42 47.511 20.774 106.29 39.547 156.624 50.068 28.030-26.913 53.137-40.54 74.711-40.54 15.896 0 29.523 7.309 39.384 21.132 10.272 14.388 12.613 27.271 6.921 38.32-6.832 13.289-23.667 19.781-51.45 19.781zM364.342 226.836c-8.303 6.368-7.826 10.661-7.644 12.277 1.1 9.866 16.552 27.377 54.466 48.682-28.741-53.084-44.176-60.127-46.822-60.959zM509.823 633.51c0.764 0.247 18.54-19.533 1.705-57.059-25.301 25.884-3.44 56.471-1.705 57.059zM473.152 349.182c18.010 42.918 34.756 90.305 47.44 134.199 19.922-35.803 43.859-70.542 67.808-98.36-37.861-8.89-78.169-21.432-115.249-35.838zM702.037 357.68c-5.463-7.644-17.316-7.826-21.468-7.826-9.455 0-12.989 5.622-27.448 16.746 11.924 1.523 23.173 1.917 32.129 1.917 15.77 0 18.663-2.323 20.845-3.493-0.388-1.259-1.417-3.639-4.063-7.344z" />
<glyph unicode="&#xe931;" glyph-name="envelope" data-tags="envelope" d="M903.396 682.858h-777.563c-69.412 0-125.833-56.422-125.833-125.833v-531.433c0-69.412 56.422-125.833 125.833-125.833h777.35c69.412 0 125.833 56.422 125.833 125.833v531.221c0.212 69.412-56.21 126.046-125.619 126.046zM971.74 25.591c0-37.687-30.66-68.346-68.346-68.346h-777.563c-37.687 0-68.346 30.66-68.346 68.346v531.221c0 37.687 30.66 68.346 68.346 68.346h777.35c37.687 0 68.346-30.66 68.346-68.346v-531.221h0.212zM648.963 297.909l251.665 225.689c11.708 10.644 12.773 28.743 2.129 40.668-10.644 11.708-28.743 12.773-40.668 2.129l-347.051-311.494-67.707 60.468c-0.212 0.212-0.424 0.424-0.424 0.641-1.488 1.488-2.981 2.769-4.686 4.046l-275.511 246.555c-11.925 10.644-30.020 9.579-40.668-2.341s-9.579-30.020 2.341-40.668l254.646-227.605-253.581-237.399c-11.496-10.861-12.137-28.955-1.276-40.668 5.751-5.963 13.413-9.156 21.081-9.156 7.027 0 14.054 2.553 19.588 7.663l257.413 240.806 69.836-62.385c5.534-4.898 12.349-7.239 19.164-7.239s13.839 2.553 19.164 7.451l71.752 64.302 255.923-243.148c5.534-5.322 12.773-7.879 19.8-7.879 7.663 0 15.118 2.981 20.864 8.944 10.861 11.496 10.432 29.808-1.064 40.668l-252.73 239.954z" />
<glyph unicode="&#xe932;" glyph-name="profile" data-tags="profile" d="M512.911 234.672c143.584 0 260.045 116.463 260.045 260.045s-116.463 259.247-260.045 259.247-260.045-116.463-260.045-259.247 116.463-260.045 260.045-260.045zM512.911 686.162c105.295 0 191.445-86.15 191.445-191.445s-86.15-191.445-191.445-191.445-191.445 86.15-191.445 191.445 86.15 191.445 191.445 191.445zM63.016-171.349h902.98c19.146 0 34.298 15.157 34.298 34.298 0 179.48-145.976 326.254-326.254 326.254h-319.074c-179.48 0-326.254-145.976-326.254-326.254 0-19.146 15.157-34.298 34.298-34.298zM354.97 120.604h319.074c130.821 0 238.508-97.318 255.26-223.352h-829.593c16.75 125.236 124.439 223.352 255.26 223.352z" />
<glyph unicode="&#xe933;" glyph-name="left-quote" data-tags="left-quote" d="M615.619 564.818c-25.733 10.793-36.527 41.504-24.902 66.41l40.677 85.5c11.62 24.063 39.846 34.865 64.748 24.063 70.561-29.883 131.158-68.898 179.304-116.214 58.937-55.608 98.782-119.527 120.366-190.087 21.583-71.399 33.203-168.512 33.203-292.199v-254.844c0-27.395-22.414-49.807-49.807-49.807h-326.234c-27.395 0-49.807 22.414-49.807 49.807v326.234c0 27.403 22.414 49.807 49.807 49.807h156.060c-1.662 83.851-21.583 151.080-58.11 201.725-29.883 40.661-74.711 73.863-135.309 99.605zM29.561 564.818c-25.733 10.793-36.519 41.504-24.902 66.41l40.677 84.663c11.62 24.072 39.846 34.865 64.748 24.072 69.73-29.883 129.505-68.898 178.474-115.385 58.946-56.448 99.613-120.366 121.204-190.925 21.583-69.721 32.367-166.852 32.367-291.369v-254.844c0-27.395-22.414-49.807-49.807-49.807h-326.234c-27.395 0-49.807 22.414-49.807 49.807v326.234c0 27.403 22.414 49.807 49.807 49.807h156.892c-1.662 83.851-21.591 151.080-58.11 201.725-29.883 40.669-74.711 73.872-135.309 99.613z" />
<glyph unicode="&#xe934;" glyph-name="left-quote2" data-tags="left-quote" d="M413.396 564.818c25.733 10.793 36.527 41.504 24.902 66.41l-40.677 85.5c-11.62 24.063-39.846 34.865-64.748 24.063-70.561-29.883-131.158-68.898-179.304-116.214-58.937-55.608-98.782-119.527-120.366-190.087-21.583-71.399-33.203-168.512-33.203-292.199v-254.844c0-27.395 22.414-49.807 49.807-49.807h326.234c27.395 0 49.807 22.414 49.807 49.807v326.234c0 27.403-22.414 49.807-49.807 49.807h-156.060c1.662 83.851 21.583 151.080 58.11 201.725 29.883 40.661 74.711 73.863 135.309 99.605zM999.454 564.818c25.733 10.793 36.519 41.504 24.902 66.41l-40.677 84.663c-11.62 24.072-39.846 34.865-64.748 24.072-69.73-29.883-129.505-68.898-178.474-115.385-58.946-56.448-99.613-120.366-121.204-190.925-21.583-69.721-32.367-166.852-32.367-291.369v-254.844c0-27.395 22.414-49.807 49.807-49.807h326.234c27.395 0 49.807 22.414 49.807 49.807v326.234c0 27.403-22.414 49.807-49.807 49.807h-156.892c1.662 83.851 21.591 151.080 58.11 201.725 29.883 40.669 74.711 73.872 135.309 99.613z" />
<glyph unicode="&#xe935;" glyph-name="calendar2" data-tags="calendar (2)" d="M868.231 709.345h-128.625v32.156c0 19.294-12.864 32.156-32.156 32.156s-32.156-12.864-32.156-32.156v-32.156h-321.564v32.156c0 19.294-12.864 32.156-32.156 32.156s-32.156-12.864-32.156-32.156v-32.156h-128.625c-90.041 0-160.784-70.744-160.784-160.784v-578.822c0-90.041 70.744-160.784 160.784-160.784h707.448c90.041 0 160.784 70.744 160.784 160.784v578.822c0 90.041-70.744 160.784-160.784 160.784zM64.314 548.561c0 51.45 45.021 96.471 96.471 96.471h128.625v-32.156c0-19.294 12.864-32.156 32.156-32.156s32.156 12.864 32.156 32.156v32.156h321.567v-32.156c0-19.294 12.864-32.156 32.156-32.156s32.156 12.864 32.156 32.156v32.156h128.625c51.45 0 96.471-45.021 96.471-96.471v-96.471h-900.393v96.471zM964.701-30.261c0-51.45-45.021-96.471-96.471-96.471h-707.448c-51.45 0-96.471 45.021-96.471 96.471v418.038h900.389v-418.038zM225.096-30.261c19.294 0 32.156 6.43 45.021 19.294s19.294 32.156 19.294 45.021-6.43 32.156-19.294 45.021c-25.723 25.723-64.314 25.723-90.041 0-12.864-12.864-19.294-25.723-19.294-45.021 0-12.864 6.43-32.156 19.294-45.021s25.727-19.294 45.021-19.294zM225.096 162.682c19.294 0 32.156 6.43 45.021 19.294s19.294 32.156 19.294 45.021-6.43 32.156-19.294 45.021c-25.723 25.723-64.314 25.723-90.041 0-12.864-12.864-19.294-25.723-19.294-45.021s6.43-32.156 19.294-45.021 25.727-19.294 45.021-19.294zM418.038-30.261c19.294 0 32.156 6.43 45.021 19.294s19.294 32.156 19.294 45.021-6.43 32.156-19.294 45.021c-25.723 25.723-64.314 25.723-90.041 0-12.864-12.864-19.294-32.156-19.294-45.021s6.43-32.156 19.294-45.021c12.864-12.864 25.727-19.294 45.021-19.294zM418.038 162.682c19.294 0 32.156 6.43 45.021 19.294s19.294 32.156 19.294 45.021-6.43 32.156-19.294 45.021c-25.723 25.723-64.314 25.723-90.041 0-12.864-12.864-19.294-32.156-19.294-45.021s6.43-32.156 19.294-45.021c12.864-12.864 25.727-19.294 45.021-19.294zM610.976-30.261c19.294 0 32.156 6.43 45.021 19.294s19.294 25.723 19.294 45.021c0 19.297-6.43 32.156-19.294 45.021-25.723 25.723-64.314 25.723-90.041 0-12.864-12.864-19.294-32.156-19.294-45.021s6.43-32.156 19.294-45.021 25.727-19.294 45.021-19.294zM610.976 162.682c19.294 0 32.156 6.43 45.021 19.294s19.294 25.723 19.294 45.021c0 12.864-6.43 32.156-19.294 45.021-25.723 25.723-64.314 25.723-90.041 0-12.864-12.864-19.294-32.156-19.294-45.021s6.43-32.156 19.294-45.021 25.727-19.294 45.021-19.294zM803.919-30.261c19.294 0 32.156 6.43 45.021 19.294s19.294 32.156 19.294 45.021-6.43 32.156-19.294 45.021c-25.723 25.723-64.314 25.723-90.041 0-12.864-12.864-19.294-25.723-19.294-45.021 0-12.864 6.43-32.156 19.294-45.021s25.727-19.294 45.021-19.294zM803.919 162.682c19.294 0 32.156 6.43 45.021 19.294s19.294 25.723 19.294 45.021c0 12.864-6.43 32.156-19.294 45.021-25.723 25.723-64.314 25.723-90.041 0-12.864-12.864-19.294-32.156-19.294-45.021s6.43-32.156 19.294-45.021c12.864-12.864 25.727-19.294 45.021-19.294z" />
<glyph unicode="&#xe936;" glyph-name="schedule-button" data-tags="schedule-button" d="M514.506 805.816c-282.979 0-514.506-231.528-514.506-514.506s231.528-514.506 514.506-514.506 514.506 231.528 514.506 514.506-231.528 514.506-514.506 514.506zM514.506-120.297c-226.383 0-411.606 185.223-411.606 411.606s185.223 411.606 411.606 411.606 411.606-185.223 411.606-411.606-185.223-411.606-411.606-411.606zM540.234 548.562h-77.175v-308.704l267.544-164.642 41.16 66.885-231.528 138.917z" />
<glyph unicode="&#xe937;" glyph-name="favourite-symbol" data-tags="favourite-symbol" d="M820.021-199.008c-4.153 0-8.306 1.27-11.858 3.854l-293.647 213.367-293.668-213.35c-7.077-5.16-16.636-5.16-23.714 0-7.077 5.123-10.025 14.218-7.319 22.525l112.159 345.248-293.668 213.35c-7.077 5.144-10.025 14.239-7.319 22.545s10.445 13.936 19.177 13.936h362.974l112.179 345.228c2.705 8.306 10.445 13.936 19.177 13.936 8.734 0 16.475-5.624 19.177-13.936l112.179-345.228h362.994c8.755 0 16.475-5.624 19.177-13.936s-0.262-17.401-7.319-22.545l-293.668-213.346 112.179-345.248c2.705-8.286-0.262-17.401-7.319-22.525-3.543-2.584-7.721-3.874-11.874-3.874z" />
<glyph unicode="&#xe938;" glyph-name="coin-icon" data-tags="coin-icon" d="M514.568-223.199v24.721l-0.038-24.721c-283.686 0-514.506 230.811-514.527 514.506 0 283.697 230.811 514.506 514.506 514.506 283.704 0 514.506-230.811 514.506-514.506 0.010-283.697-230.772-514.506-514.447-514.506zM514.506 756.372c-256.432 0-465.063-208.632-465.063-465.063 0.020-256.433 208.662-465.063 465.083-465.063h0.038c256.413 0 465.005 208.63 465.005 465.063 0.010 256.432-208.62 465.063-465.063 465.063zM514.527-3.452c-93.478 0-169.542 71.664-169.542 159.741 0 13.655 11.066 24.721 24.721 24.721s24.721-11.066 24.721-24.721c0-60.814 53.875-110.301 120.098-110.301s120.078 49.485 120.078 110.301c0 60.815-53.864 110.299-120.078 110.299-93.478 0-169.542 71.664-169.542 159.741 0 88.080 76.063 159.741 169.542 159.741 50.197 0 97.502-20.766 129.799-56.978 9.087-10.195 8.187-25.817-1.998-34.906-10.186-9.099-25.816-8.189-34.906 1.998-22.911 25.7-56.77 40.443-92.895 40.443-66.214 0-120.098-49.471-120.098-110.299 0-60.814 53.875-110.298 120.098-110.298 93.479 0 169.522-71.664 169.522-159.743 0.010-88.078-76.043-159.741-169.522-159.741zM509.998-77.321c-13.655 0-24.721 11.066-24.721 24.721v687.816c0 13.655 11.066 24.721 24.721 24.721 13.657 0 24.721-11.066 24.721-24.721v-687.816c0.002-13.655-11.065-24.721-24.721-24.721z" />
<glyph unicode="&#xe939;" glyph-name="characters-interface-sign" data-tags="characters-interface-sign" d="M150.524 249.078c4.589-2.874 10.337-3.254 15.247-0.944l96.24 45.198c1.899-150.631-89.305-249.127-107.605-267.332-4.304-4.272-5.801-10.654-3.829-16.402l13.169-38.584c1.793-5.248 6.181-9.193 11.598-10.39 1.144-0.243 2.3-0.38 3.444-0.38 4.272 0 8.428 1.73 11.46 4.878 33.97 35.315 67.231 84.597 91.277 135.215l113.106-45.773c8.027-3.222 17.156 0.506 20.569 8.449l21.281 49.386c1.698 3.934 1.74 8.375 0.106 12.331-1.624 3.966-4.783 7.094-8.749 8.692l-117.592 47.582c6.914 25.911 22.9 92.010 22.086 145.784l86.569 42.092c5.469 2.663 8.939 8.196 8.95 14.282l0.074 52.070c0 5.459-2.79 10.538-7.399 13.465s-10.4 3.265-15.331 0.923l-253.293-120.529c-5.564-2.653-9.098-8.28-9.066-14.44l0.274-52.218c0.032-5.427 2.822-10.453 7.41-13.359zM694.612 169.433l75.044-32.295-38.316 177.952zM1015.635 360.066v417.399c0 9.541-4.805 18.459-12.795 23.696-7.995 5.258-18.079 6.107-26.813 2.331l-461.166-199.549-461.972 193.22c-8.749 3.787-18.828 2.916-26.824-2.321-7.985-5.237-12.784-14.155-12.784-23.707v-402.1c0-0.285-0.116-0.543-0.116-0.828v-550.385c0-9.541 4.805-18.459 12.784-23.696 4.699-3.085 10.115-4.646 15.564-4.646 3.818 0 7.653 0.775 11.26 2.331l461.993 199.91 461.484-212.58c3.607-1.55 7.442-2.331 11.26-2.331 5.448 0 10.87 1.572 15.564 4.657 7.985 5.237 12.784 14.145 12.784 23.686v550.418c0.011 1.197-0.084 2.758-0.222 4.494zM514.583 53.42l-444.711-192.425v488.595l445.072 192.595-0.359-488.764zM880.59-74.987c-2.916-2.5-6.603-3.808-10.316-3.808-2.131 0-4.261 0.422-6.287 1.292l-41.934 18.037c-4.636 1.994-8.038 6.044-9.182 10.954l-24.461 103.418-111.497 47.946-20.759-72.075c-1.25-4.388-4.346-8.016-8.47-9.968-4.135-1.951-8.887-2.036-13.085-0.222l-44.85 19.298c-7.431 3.191-11.271 11.45-8.96 19.203l106.206 352.681c1.303 4.335 4.409 7.921 8.512 9.831s8.823 1.983 13.011 0.19l54.857-23.591c4.536-1.951 7.932-5.907 9.129-10.696l113.202-446.471c1.461-5.875-0.506-12.077-5.121-16.012zM958.912 424.349l-370.175 149.76 370.175 160.182v-309.942z" />
<glyph unicode="&#xe93a;" glyph-name="teacher-writing-on-whiteboard" data-tags="teacher-writing-on-whiteboard" d="M896.555 163.081h-363.258c-0.523 0-0.945 0-1.463 0-57.439-0.847-111.849 26.636-145.029 73.623-26.147 36.957-36.47 82.773-28.784 127.381 2.802 16.314 2.181 33.573-2.505 50.664-6.154 22.468-18.463 41.648-34.452 55.941l0.783 0.259-35.948 131.127c-4.659 16.967-22.176 26.927-39.138 22.306l-22.176-6.089c-8.141-2.213-15.078-7.617-19.245-14.948-4.2-7.326-5.307-16.022-3.061-24.195l22.662-82.708c-1.63-0.356-3.255-0.75-4.885-1.204-58.254-15.99-92.086-77.856-75.512-138.225 5.96-21.75 17.68-40.342 32.887-54.475 20.935-86.581 73.591-193.612 180.099-268.796 36.795-25.983 68.543-59.231 92.604-97.328 0.065-0.13 0.162-0.292 0.227-0.421l6.025-141.024h559.248v224.871c0 74.239-51.872 143.239-119.078 143.239zM889.26 335.038c0-94.305-78.052-170.753-174.336-170.753s-174.336 76.449-174.336 170.753c0 94.305 78.052 170.753 174.336 170.753s174.336-76.449 174.336-170.753zM345.122 606.54c0-10.743 8.692-19.407 19.407-19.407h644.722c10.743 0 19.407 8.692 19.407 19.407v13.739c0 10.743-8.727 19.407-19.407 19.407h-644.689c-10.743 0-19.407-8.692-19.407-19.407l-0.032-13.739zM21.361 787.614c-11.821 0-21.361-9.571-21.361-21.361v-11.786c0-10.711 8.692-19.407 19.407-19.407h990.136c10.743 0 19.472 8.692 19.472 19.407v13.739c0 10.711-8.727 19.44-19.472 19.44l-988.182-0.032z" />
<glyph unicode="&#xe93b;" glyph-name="teacher-reading" data-tags="teacher-reading" d="M1011.574 38.415l-235.452 324.837-8.72 15.261c-7.266 10.171-19.258 20.344-35.972 30.523-16.713 10.175-35.972 15.261-57.772 15.261h-318.298c-21.8 0-41.42-5.449-58.861-16.351s-28.706-19.984-33.792-27.254-8.356-13.082-9.813-17.441l-235.452-324.837c-11.625-15.989-17.441-33.43-17.441-52.323 0-24.707 9.085-46.147 27.254-64.315s39.608-27.254 64.315-27.254c11.625 0 23.257 2.179 34.882 6.538l141.707 41.42v-141.707h492.706v141.707l141.707-41.42c11.625-4.359 23.257-6.538 34.882-6.538 24.707 0 46.147 9.085 64.315 27.254s27.254 39.608 27.254 64.315c0 18.893-5.816 36.334-17.441 52.323zM760.861 123.44l-17.441 6.538c-24.707 5.816-46.874 5.816-66.494 0s-33.792-16.713-42.511-32.702-13.444-32.702-14.172-50.143 5.449-34.52 18.531-51.233 31.975-28.706 56.682-35.972h2.179l-183.129-61.043-183.129 61.043h4.359c23.257 7.266 41.42 19.258 54.502 35.972s19.258 33.792 18.531 51.233-5.449 34.154-14.172 50.143-22.89 26.886-42.511 32.702-41.788 5.816-66.494 0l-17.441-6.538v189.671l246.354-80.665 246.354 80.665v-189.671zM517.778 461.357c44.329 0 82.118 15.624 113.366 46.874s46.874 69.036 46.874 113.366-15.624 82.118-46.874 113.366-69.036 46.874-113.366 46.874c-44.329 0-82.118-15.624-113.366-46.874s-46.874-69.036-46.874-113.366 15.624-82.118 46.874-113.366 69.036-46.874 113.366-46.874z" />
<glyph unicode="&#xe93c;" glyph-name="plus-zoom-or-search-symbol-of-interface" data-tags="plus-zoom-or-search-symbol-of-interface" d="M597.259 612.126h47.974v-191.891h191.891v-47.974h-191.891v-191.891h-47.974v191.891h-191.891v47.974h191.891zM21.584-107.467l268.648 268.648c-47.974 67.162-76.758 148.717-76.758 235.069 0 225.474 182.297 407.768 407.768 407.768s407.77-182.297 407.77-407.768-182.297-407.768-407.768-407.768c-86.35 0-167.906 28.783-235.069 76.758l-268.648-268.648c-23.983-23.983-67.162-23.983-95.946 0v0c-28.783 28.781-28.783 67.162 0 95.944zM621.247 84.425c172.702 0 311.823 139.123 311.823 311.823 0 172.702-139.12 311.823-311.823 311.823s-311.823-139.12-311.823-311.823c-0.002-172.699 139.12-311.823 311.823-311.823z" />
<glyph unicode="&#xe93d;" glyph-name="plus-zoom-or-search-symbol-of-interface2" data-tags="plus-zoom-or-search-symbol-of-interface" d="M431.756 612.126h-47.974v-191.891h-191.891v-47.974h191.891v-191.891h47.974v191.891h191.891v47.974h-191.891zM1007.431-107.467l-268.648 268.648c47.974 67.162 76.758 148.717 76.758 235.069 0 225.474-182.297 407.768-407.768 407.768s-407.77-182.297-407.77-407.768 182.297-407.768 407.768-407.768c86.35 0 167.906 28.783 235.069 76.758l268.648-268.648c23.983-23.983 67.162-23.983 95.946 0v0c28.783 28.781 28.783 67.162 0 95.944zM407.768 84.425c-172.702 0-311.823 139.123-311.823 311.823 0 172.702 139.12 311.823 311.823 311.823s311.823-139.12 311.823-311.823c0.002-172.699-139.12-311.823-311.823-311.823z" />
<glyph unicode="&#xe93e;" glyph-name="search" data-tags="search" d="M11.046-158.867l249.206 249.206c-63.696 75.733-102.177 173.317-102.177 280.007 0.002 240.497 194.973 435.468 435.47 435.468s435.47-194.971 435.47-435.47-194.971-435.47-435.47-435.47c-106.691 0-204.276 38.481-280.007 102.177l-249.206-249.206c-14.726-14.726-38.562-14.726-53.285 0s-14.724 38.562 0 53.287zM593.545 14.054c196.792 0 356.294 159.5 356.294 356.295 0 196.792-159.5 356.294-356.294 356.294s-356.295-159.5-356.295-356.294c0.002-196.794 159.502-356.295 356.295-356.295z" />
<glyph unicode="&#xe93f;" glyph-name="search2" data-tags="search" d="M1017.969-158.867l-249.206 249.206c63.696 75.733 102.177 173.317 102.177 280.007-0.002 240.497-194.973 435.468-435.47 435.468s-435.47-194.971-435.47-435.47 194.971-435.47 435.47-435.47c106.691 0 204.276 38.481 280.007 102.177l249.206-249.206c14.726-14.726 38.562-14.726 53.285 0s14.724 38.562 0 53.287zM435.47 14.054c-196.792 0-356.294 159.5-356.294 356.295 0 196.792 159.5 356.294 356.294 356.294s356.295-159.5 356.295-356.294c-0.002-196.794-159.502-356.295-356.295-356.295z" />
<glyph unicode="&#xe940;" glyph-name="left-arrow" data-tags="left-arrow" d="M693.36 642.154c-14.506 14.506-37.344 14.506-51.853 0-14.019-14.019-14.019-37.344 0-51.33l262.923-262.923h-867.608c-20.226 0-36.823-16.077-36.823-36.298s16.597-36.823 36.823-36.823h867.608l-262.923-262.432c-14.019-14.506-14.019-37.869 0-51.853 14.506-14.506 37.344-14.506 51.853 0l325.166 325.166c14.019 14.019 14.019 37.344 0 51.33l-325.166 325.166z" />
<glyph unicode="&#xe941;" glyph-name="left-arrow2" data-tags="left-arrow" d="M335.654 642.154c14.506 14.506 37.344 14.506 51.853 0 14.019-14.019 14.019-37.344 0-51.33l-262.923-262.923h867.608c20.226 0 36.823-16.077 36.823-36.298s-16.597-36.823-36.823-36.823h-867.608l262.923-262.432c14.019-14.506 14.019-37.869 0-51.853-14.506-14.506-37.344-14.506-51.853 0l-325.166 325.166c-14.019 14.019-14.019 37.344 0 51.33l325.166 325.166z" />
<glyph unicode="&#xe942;" glyph-name="book1" data-tags="book" d="M894.639 538.335h-626.734c-58.075 0-105.551 47.264-105.551 105.551 0 58.075 47.264 105.551 105.551 105.551h626.946c15.683 0 28.189 12.715 28.189 28.189 0 15.683-12.715 28.189-28.189 28.189h-626.946c-89.231 0-161.93-72.699-161.93-161.93v-705.156c0-89.231 72.699-161.93 161.93-161.93h626.946c15.683 0 28.189 12.715 28.189 28.189v705.156c-0.211 15.472-12.715 28.189-28.403 28.189zM866.449-166.82h-598.545c-58.075 0-105.551 47.264-105.551 105.551v582.225c28.403-24.375 65.282-39.21 105.551-39.21h598.545v-648.566zM276.806 669.533c-15.683 0-28.189-12.715-28.189-28.189s12.715-28.189 28.189-28.189h529.451c15.683 0 28.189 12.715 28.189 28.189s-12.715 28.189-28.189 28.189h-529.451zM375.998-43.465c3.179-1.060 6.357-1.697 9.536-1.697 11.655 0 22.467 7.206 26.495 18.651l34.334 96.013h132.257c1.060 0 2.33 0 3.39 0.211l34.334-96.226c4.027-11.444 15.050-18.651 26.495-18.651 3.179 0 6.357 0.638 9.536 1.697 14.623 5.298 22.256 21.408 16.957 36.031l-128.44 360.102c-0.211 0.849-0.638 1.697-1.060 2.541-0.211 0.422-0.422 0.849-0.638 1.27s-0.422 0.849-0.638 1.27c-0.211 0.422-0.638 0.849-0.849 1.481-0.211 0.211-0.422 0.638-0.638 0.849-0.211 0.422-0.638 0.849-1.060 1.27-0.211 0.211-0.422 0.638-0.849 0.849-0.211 0.422-0.638 0.638-1.060 1.060s-0.638 0.638-1.060 1.060c-0.211 0.211-0.638 0.422-0.849 0.849-0.422 0.422-0.849 0.638-1.27 1.060-0.211 0.211-0.638 0.422-0.849 0.638-0.422 0.211-0.849 0.638-1.27 0.849s-0.849 0.422-1.27 0.638-0.849 0.422-1.27 0.638c-0.849 0.422-1.697 0.849-2.541 1.060v0h-0.211c-0.849 0.211-1.697 0.422-2.541 0.638-0.422 0-0.638 0.211-1.060 0.211-0.638 0.211-1.060 0.211-1.697 0.422-0.422 0-0.849 0-1.27 0.211-0.422 0-1.060 0.211-1.481 0.211s-0.849 0-1.27 0c-0.422 0-0.849 0-1.481 0-0.422 0-1.060 0-1.481-0.211-0.422 0-0.849 0-1.27-0.211-0.638 0-1.060-0.211-1.697-0.422-0.422 0-0.638-0.211-1.060-0.211-0.849-0.211-1.697-0.422-2.33-0.638h-0.211c-0.849-0.211-1.697-0.638-2.541-1.060-0.422-0.211-0.849-0.422-1.27-0.638s-0.849-0.422-1.27-0.638c-0.422-0.211-0.849-0.638-1.481-0.849-0.211-0.211-0.638-0.422-0.849-0.638-0.422-0.422-0.849-0.638-1.27-1.060-0.211-0.211-0.638-0.422-0.849-0.849-0.422-0.422-0.638-0.638-1.060-1.060s-0.638-0.638-1.060-1.060c-0.211-0.211-0.422-0.638-0.849-0.849-0.422-0.422-0.638-0.849-1.060-1.27-0.211-0.211-0.422-0.638-0.638-0.849-0.211-0.422-0.638-0.849-0.849-1.27s-0.422-0.849-0.638-1.27c-0.211-0.422-0.422-0.849-0.638-1.27-0.422-0.849-0.849-1.697-1.060-2.541v0l-128.865-360.102c-4.665-14.834 2.968-30.944 17.591-36.242zM514.401 259.411l47.688-133.527h-95.588l47.902 133.527z" />
<glyph unicode="&#xe943;" glyph-name="google-plus" data-tags="google-plus" d="M789.708 335.184h-368.529v-122.844h224.84c-33.542-106.797-133.296-184.266-251.167-184.266-145.385 0-263.234 117.859-263.234 263.236 0 145.385 117.855 263.234 263.234 263.234 73.209 0 139.428-29.893 187.142-78.131l89.17 96.922c-71.214 69.782-168.727 112.825-276.312 112.825-218.070 0.002-394.852-176.78-394.852-394.85s176.782-394.856 394.854-394.856c191.023 0 358.269 135.659 394.856 315.883v122.844l-0.002 0.002zM1029.015 335.394h-75.38v75.38h-64.617v-75.38h-75.38v-64.61h75.38v-75.382h64.617v75.382h75.38z" />
<glyph unicode="&#xe944;" glyph-name="pinterest-logo" data-tags="pinterest-logo" d="M960.057 549.569c-46.011 78.825-108.421 141.235-187.248 187.242-78.825 46.007-164.909 69.003-258.262 69.003-93.347 0-179.436-22.996-258.259-69.003-78.837-46.002-141.247-108.412-187.252-187.242-46.018-78.837-69.014-164.918-69.014-258.266 0-104.068 28.359-198.541 85.080-283.382 56.719-84.879 131.085-147.625 223.090-188.265-1.789 47.788 1.116 87.311 8.701 118.574l66.331 280.051c-11.17 21.889-16.75 49.113-16.75 81.733 0 37.955 9.593 69.666 28.803 95.131 19.21 25.461 42.654 38.186 70.346 38.186 22.326 0 39.518-7.367 51.58-22.106 12.067-14.741 18.082-33.274 18.082-55.611 0-13.834-2.581-30.702-7.72-50.575-5.134-19.875-11.831-42.879-20.093-69.007-8.262-26.12-14.186-47.016-17.752-62.633-6.248-27.24-1.116-50.573 15.409-70.014 16.524-19.425 38.416-29.149 65.663-29.149 47.788 0 86.975 26.572 117.577 79.717 30.595 53.161 45.885 117.699 45.885 193.621 0 58.517-18.869 106.085-56.618 142.698-37.745 36.628-90.331 54.95-157.777 54.95-75.466 0-136.548-24.234-183.221-72.691-46.674-48.464-70.009-106.421-70.009-173.855 0-40.2 11.389-73.927 34.164-101.164 7.589-8.932 10.051-18.532 7.367-28.812-0.895-2.684-2.679-9.378-5.358-20.093-2.672-10.71-4.464-17.649-5.351-20.768-3.567-14.293-12.062-18.757-25.461-13.394-34.386 14.279-60.519 39.074-78.377 74.358-17.864 35.283-26.801 76.157-26.801 122.596 0 29.924 4.805 59.846 14.407 89.768 9.593 29.931 24.564 58.844 44.881 86.763 20.329 27.922 44.669 52.6 73.030 74.029 28.352 21.436 62.855 38.63 103.501 51.58s84.407 19.429 131.309 19.429c63.432 0 120.364-14.069 170.826-42.204 50.477-28.137 88.993-64.534 115.571-109.2 26.579-44.669 39.861-92.459 39.861-143.375 0-66.989-11.609-127.282-34.827-180.883-23.223-53.591-56.053-95.685-98.49-126.273-42.43-30.604-90.661-45.901-144.721-45.901-27.237 0-52.692 6.367-76.374 19.091-23.664 12.732-39.971 27.799-48.901 45.224-20.102-79.042-32.16-126.172-36.182-141.355-8.484-31.697-25.9-68.329-52.257-109.861 47.793-14.293 96.47-21.424 146.046-21.424 93.347 0 179.439 22.996 258.262 69.010 78.832 45.997 141.242 108.407 187.237 187.23 46.007 78.841 69.003 164.93 69.003 258.269 0.023 93.34-22.94 179.434-68.93 258.257z" />
<glyph unicode="&#xe945;" glyph-name="blogger" data-tags="blogger" d="M1026.3 371.452c0 25.353-20.553 45.902-45.906 45.902v0.003l-46.145-0.003c-29.483-0.038-59.819 0.991-72.714 12.683-18.225 16.846-20.966 47.102-26.478 88.016-10.31 79.418-16.839 83.546-29.224 110.362-45.037 95.578-167.085 167.434-250.973 177.403h-227.254c-178.784 0-324.897-146.46-324.897-325.241v-379.219c0-178.435 146.113-324.555 324.897-324.555h373.372c178.777 0 323.865 146.12 324.897 324.558 0 0 0.42 269.42 0.42 270.093zM331.738 540.057h180.15c34.38 0 62.233-27.851 62.233-61.883 0-34.039-27.848-62.233-62.233-62.233h-180.15c-34.387 0-62.24 28.187-62.24 62.233 0 34.032 27.848 61.883 62.24 61.883zM697.889 44.284h-366.152c-34.387 0-62.24 28.191-62.24 61.88 0 34.039 27.848 61.887 62.24 61.887h366.152c34.039 0 61.887-27.848 61.887-61.887 0-33.687-27.848-61.88-61.887-61.88z" />
<glyph unicode="&#xe946;" glyph-name="instagram-logo" data-tags="instagram-logo" d="M926.114 805.816h-823.212c-56.595 0-102.9-46.305-102.9-102.9v-823.212c0-56.595 46.305-102.9 102.9-102.9h823.212c56.595 0 102.9 46.305 102.9 102.9v823.212c0 56.595-46.305 102.9-102.9 102.9zM514.506 497.112c113.191 0 205.803-92.61 205.803-205.803s-92.61-205.803-205.803-205.803c-113.191 0-205.803 92.61-205.803 205.803s92.61 205.803 205.803 205.803zM128.626-120.297c-15.435 0-25.725 10.29-25.725 25.725v437.331h108.046c-5.145-15.435-5.145-36.015-5.145-51.45 0-169.787 138.917-308.704 308.704-308.704s308.704 138.917 308.704 308.704c0 15.435 0 36.015-5.145 51.45h108.046v-437.331c0-15.435-10.29-25.725-25.725-25.725h-771.761zM926.114 574.287c0-15.435-10.29-25.725-25.725-25.725h-102.9c-15.435 0-25.725 10.29-25.725 25.725v102.9c0 15.435 10.29 25.725 25.725 25.725h102.9c15.435 0 25.725-10.29 25.725-25.725v-102.9z" />
<glyph unicode="&#xe947;" glyph-name="old-handphone" data-tags="old-handphone" d="M323.209 465.17l-237.606 237.727c30.669 30.669 61.278 61.399 92.007 92.129 14.207 14.207 37.131 14.45 51.398 0.425l185.109-185.292c14.146-14.146 14.146-37.436-0.182-51.702l-78.286-78.225c-4.636-4.697-8.843-9.692-12.438-15.062zM518.685 77.938c-38.9 33.475-76.213 69.018-112.431 105.176-36.155 36.4-71.582 73.594-105.114 112.676-27.438 31.706-32.803 77.618-18.474 116.272l-243.885 243.947c-56.763-58.35-49.508-203.035 12.68-330.159 26.705-54.997 61.338-104.627 97.128-151.819 35.73-46.828 74.934-91.092 116.21-132.673 41.398-41.521 85.42-80.91 132.369-116.639 47.192-35.912 96.944-70.3 151.575-96.944 127.308-62.13 272.055-68.958 330.343-12.134l-243.947 243.947c-38.658-14.328-84.628-9.025-116.456 18.353zM1018.346 5.932l-185.109 185.17c-14.207 14.025-37.499 14.025-51.702-0.182h-0.121l-40.67-40.609-37.499-37.682c-4.636-4.636-9.692-8.718-15.062-12.498l237.545-237.666c30.73 30.791 61.399 61.399 92.19 92.068 14.328 14.207 14.632 37.191 0.425 51.398z" />
<glyph unicode="&#xe948;" glyph-name="menu" data-tags="menu" d="M1029.015 677.189c0 25.725-17.152 42.877-42.877 42.877h-943.263c-25.725 0-42.877-17.152-42.877-42.877v-85.751c0-25.725 17.152-42.877 42.877-42.877h943.263c25.725 0 42.877 17.152 42.877 42.877v85.751zM1029.015 334.185c0 25.725-17.152 42.877-42.877 42.877h-943.263c-25.725 0-42.877-17.152-42.877-42.877v-85.751c0-25.725 17.152-42.877 42.877-42.877h943.263c25.725 0 42.877 17.152 42.877 42.877v85.751zM1029.015-8.821c0 25.725-17.152 42.877-42.877 42.877h-943.263c-25.725 0-42.877-17.152-42.877-42.877v-85.751c0-25.725 17.152-42.877 42.877-42.877h943.263c25.725 0 42.877 17.152 42.877 42.877v85.751z" />
<glyph unicode="&#xe949;" glyph-name="close" data-tags="close" d="M514.506 805.816c-284.17 0-514.506-230.337-514.506-514.506s230.337-514.506 514.506-514.506c284.135 0 514.506 230.337 514.506 514.506s-230.337 514.506-514.506 514.506zM514.506-158.885c-248.637 0-450.194 201.557-450.194 450.194s201.557 450.194 450.194 450.194c248.637 0 450.194-201.557 450.194-450.194s-201.557-450.194-450.194-450.194zM730.441 507.241c-12.253 12.253-32.155 12.253-44.408 0l-171.524-171.523-171.524 171.523c-12.253 12.253-32.155 12.253-44.408 0s-12.253-32.155 0-44.408l171.524-171.523-171.49-171.524c-12.253-12.253-12.253-32.155 0-44.408 12.253-12.251 32.155-12.251 44.408 0l171.49 171.524 171.524-171.524c12.253-12.251 32.155-12.251 44.408 0 12.251 12.253 12.251 32.155 0 44.408l-171.524 171.524 171.524 171.524c12.251 12.251 12.251 32.123 0 44.406z" />
<glyph unicode="&#xe94a;" glyph-name="close2" data-tags="close" d="M514.506 805.816c-285.318 0-514.506-229.19-514.506-514.506s229.19-514.506 514.506-514.506 514.506 229.19 514.506 514.506-229.19 514.506-514.506 514.506zM589.345 281.954l175.4-175.4c4.68-4.68 7.017-11.691 7.017-16.371s-2.337-11.691-7.017-16.371l-32.742-32.742c-4.68-4.68-11.691-7.017-16.371-7.017-7.017 0-11.691 2.337-16.371 7.017l-175.4 175.4c-4.68 4.68-11.691 4.68-16.371 0l-175.4-175.4c-4.68-4.68-11.691-7.017-16.371-7.017-7.017 0-11.691 2.337-16.371 7.017l-32.742 32.742c-4.68 4.68-7.017 11.691-7.017 16.371s2.337 11.691 7.017 16.371l175.4 175.4c4.68 4.68 4.68 11.691 0 16.371l-175.4 175.4c-4.68 4.68-7.017 11.691-7.017 16.371s2.337 11.691 7.017 16.371l32.742 32.742c4.68 4.68 11.691 7.017 16.371 7.017s11.691-2.337 16.371-7.017l175.4-175.4c4.68-4.68 11.691-4.68 16.371 0l175.4 175.4c4.68 4.68 11.691 7.017 16.371 7.017 7.017 0 11.691-2.337 16.371-7.017l32.742-32.742c4.68-4.68 7.017-11.691 7.017-16.371s-2.337-11.691-7.017-16.371l-175.4-175.4c-4.68-2.337-4.68-11.691 0-16.371z" />
<glyph unicode="&#xe94b;" glyph-name="quote-left" data-tags="quote-left" d="M336.59 603.328c-160.834-81.245-298.454-248.712-326.642-401.255-23.215-127.672 77.93-245.396 210.576-245.396 135.963 0 235.447 170.782 170.782 295.138-33.16 64.665-77.93 89.535-175.756 102.8l-74.615 8.29 67.98 67.98c38.135 38.135 117.725 92.852 179.073 122.698 104.46 51.4 129.33 84.561 74.615 96.17-13.265 1.66-69.64-18.24-126.015-46.425zM855.57 601.672c-187.363-97.826-316.693-276.899-316.693-442.707 0-81.245 4.975-92.852 61.35-145.91 81.245-72.955 182.389-79.588 260.318-14.925 145.91 122.698 81.245 333.274-111.090 356.487l-77.93 9.95 72.955 71.297c41.45 39.795 121.040 94.51 177.415 121.040 72.955 34.82 101.143 56.375 94.51 72.955-13.265 34.82-51.4 28.186-160.834-28.186z" />
<glyph unicode="&#xe94c;" glyph-name="quote-right" data-tags="quote-right" d="M691.42 603.328c160.834-81.245 298.454-248.712 326.642-401.255 23.215-127.672-77.93-245.396-210.576-245.396-135.963 0-235.447 170.782-170.782 295.138 33.16 64.665 77.93 89.535 175.756 102.8l74.615 8.29-67.98 67.98c-38.135 38.135-117.725 92.852-179.073 122.698-104.46 51.4-129.33 84.561-74.615 96.17 13.265 1.66 69.64-18.24 126.015-46.425zM172.44 601.672c187.363-97.826 316.693-276.899 316.693-442.707 0-81.245-4.975-92.852-61.35-145.91-81.245-72.955-182.389-79.588-260.318-14.925-145.91 122.698-81.245 333.274 111.090 356.487l77.93 9.95-72.955 71.297c-41.45 39.795-121.040 94.51-177.415 121.040-72.955 34.82-101.143 56.375-94.51 72.955 13.265 34.82 51.4 28.186 160.834-28.186z" />
<glyph unicode="&#xe94d;" glyph-name="angle-right" data-tags="angle-right" horiz-adv-x="347" d="M340.998 295.503q0-7.45-5.732-13.182l-267.068-267.068q-5.732-5.732-13.182-5.732t-13.182 5.732l-28.655 28.655q-5.732 5.732-5.732 13.182t5.732 13.182l225.231 225.231-225.231 225.231q-5.732 5.732-5.732 13.182t5.732 13.182l28.655 28.655q5.732 5.732 13.182 5.732t13.182-5.732l267.068-267.068q5.732-5.732 5.732-13.182z" />
<glyph unicode="&#xe94e;" glyph-name="angle-left" data-tags="angle-left" horiz-adv-x="384" d="M359.338 533.916q0-7.45-5.732-13.182l-225.231-225.231 225.231-225.231q5.732-5.732 5.732-13.182t-5.732-13.182l-28.655-28.655q-5.732-5.732-13.182-5.732t-13.182 5.732l-267.068 267.068q-5.732 5.732-5.732 13.182t5.732 13.182l267.068 267.068q5.732 5.732 13.182 5.732t13.182-5.732l28.655-28.655q5.732-5.732 5.732-13.182z" />
<glyph unicode="&#xe94f;" glyph-name="chevron-thin-left" data-tags="chevron-thin-left" d="M713.307-56.071c13.761-13.968 13.761-36.408 0-50.272s-35.996-13.917-49.759 0l-402.073 406.079c-13.761 13.866-13.761 36.303 0 50.272l402.073 406.079c13.761 13.866 35.996 13.866 49.759 0 13.761-13.917 13.761-36.408 0-50.272l-366.692-380.968 366.692-380.917z" />
<glyph unicode="&#xe950;" glyph-name="chevron-thin-right" data-tags="chevron-thin-right" d="M680.391 324.846l-366.692 381.019c-13.761 13.866-13.761 36.303 0 50.272 13.761 13.866 35.996 13.866 49.759 0l402.073-406.079c13.761-13.917 13.761-36.408 0-50.272l-402.073-406.079c-13.761-13.917-35.996-13.866-49.759 0-13.761 13.812-13.761 36.303 0 50.272l366.692 380.865z" />
<glyph unicode="&#xe951;" glyph-name="check_circle" data-tags="check_circle" d="M426.833 149.611l384.751 384.751-60.118 62.122-324.634-324.634-152.298 152.298-60.118-60.118zM513.001 790.864c236.462 0 426.833-190.372 426.833-426.833s-190.372-426.833-426.833-426.833-426.833 190.372-426.833 426.833 190.372 426.833 426.833 426.833z" />
<glyph unicode="&#xe952;" glyph-name="circle-thin" data-tags="circle-thin" horiz-adv-x="880" d="M439.715 712.138c-202.108 0-366.429-164.32-366.429-366.429s164.32-366.429 366.429-366.429 366.429 164.32 366.429 366.429-164.32 366.429-366.429 366.429zM879.431 345.708c0-242.76-196.955-439.715-439.715-439.715s-439.715 196.955-439.715 439.715 196.955 439.715 439.715 439.715v0c242.76 0 439.715-196.955 439.715-439.715z" />
<glyph unicode="&#xe953;" glyph-name="circle" data-tags="circle" horiz-adv-x="880" d="M879.431 345.708c0-242.76-196.955-439.715-439.715-439.715s-439.715 196.955-439.715 439.715 196.955 439.715 439.715 439.715 439.715-196.955 439.715-439.715z" />
<glyph unicode="&#xe954;" glyph-name="retweet" data-tags="retweet" horiz-adv-x="1099" d="M732.86-2.4c0-9.733-8.587-18.322-18.322-18.322h-549.644c-21.185 0-18.322 22.33-18.322 36.643v329.787h-109.928c-20.040 0-36.643 16.603-36.643 36.643 0 8.587 2.863 17.177 8.587 23.475l183.215 219.858c6.871 8.016 17.177 12.595 28.054 12.595s21.185-4.579 28.054-12.595l183.215-219.858c5.726-6.298 8.587-14.887 8.587-23.475 0-20.040-16.603-36.643-36.643-36.643h-109.928v-219.858h329.787c5.153 0 10.879-2.29 14.314-6.298l91.607-109.928c2.29-3.435 4.008-8.016 4.008-12.024zM1099.289 235.78c0-8.587-2.863-17.177-8.587-23.475l-183.215-219.858c-6.871-8.016-17.177-13.169-28.054-13.169s-21.185 5.153-28.054 13.169l-183.215 219.858c-5.726 6.298-8.587 14.887-8.587 23.475 0 20.040 16.603 36.643 36.643 36.643h109.928v219.858h-329.787c-5.153 0-10.879 2.29-14.314 6.871l-91.607 109.928c-2.29 2.863-4.008 7.443-4.008 11.451 0 9.733 8.587 18.322 18.322 18.322h549.644c21.185 0 18.322-22.33 18.322-36.643v-329.787h109.928c20.040 0 36.643-16.603 36.643-36.643z" />
<glyph unicode="&#xe955;" glyph-name="mail-reply-all" data-tags="mail-reply-all, reply-all" horiz-adv-x="1023" d="M366.429 239.214v-40.078c0-14.887-9.161-28.054-22.33-33.78-4.579-1.718-9.733-2.863-14.314-2.863-9.733 0-18.893 3.435-25.764 10.879l-293.143 293.143c-14.314 14.314-14.314 37.215 0 51.529l293.143 293.143c10.306 10.879 26.338 13.74 40.078 8.016 13.169-5.726 22.33-18.893 22.33-33.78v-39.507l-227.301-227.874c-14.314-14.314-14.314-37.215 0-51.529zM1026.003 217.458c0-119.089-89.89-294.288-93.898-301.732-2.863-6.298-9.161-9.733-16.032-9.733-1.718 0-3.435 0-5.153 0.573-8.587 2.863-13.74 10.879-13.169 19.467 16.603 156.305-2.863 259.363-60.689 323.489-48.666 54.392-127.679 83.593-250.776 93.325v-143.709c0-14.887-9.161-28.054-22.33-33.78-4.579-1.718-9.733-2.863-14.314-2.863-9.733 0-18.893 3.435-25.764 10.879l-293.143 293.143c-14.314 14.314-14.314 37.215 0 51.529l293.143 293.143c10.306 10.879 26.338 13.74 40.078 8.016 13.169-5.726 22.33-18.893 22.33-33.78v-150.006c158.022-10.879 270.814-52.673 342.956-126.533 86.454-88.745 96.759-208.979 96.759-291.426z" />
</font>
</defs>
</svg>
